<svg width="30" height="30" viewBox="0 0 30 30" fill="none" xmlns="http://www.w3.org/2000/svg">
<rect opacity="0.1" width="30" height="30" rx="5" fill="#95E362"/>
<path d="M17.152 15.288C17.7493 15.3947 18.256 15.7093 18.672 16.232C19.088 16.7547 19.296 17.3467 19.296 18.008C19.296 18.5733 19.1467 19.0853 18.848 19.544C18.56 19.992 18.1387 20.3493 17.584 20.616C17.0293 20.872 16.384 21 15.648 21H11.2V9.88H15.44C16.1973 9.88 16.848 10.008 17.392 10.264C17.936 10.52 18.3467 10.8667 18.624 11.304C18.9013 11.7307 19.04 12.2107 19.04 12.744C19.04 13.384 18.8693 13.9173 18.528 14.344C18.1867 14.7707 17.728 15.0853 17.152 15.288ZM13.024 14.552H15.28C15.8773 14.552 16.3413 14.4187 16.672 14.152C17.0133 13.8747 17.184 13.48 17.184 12.968C17.184 12.4667 17.0133 12.0773 16.672 11.8C16.3413 11.512 15.8773 11.368 15.28 11.368H13.024V14.552ZM15.488 19.512C16.1067 19.512 16.592 19.3627 16.944 19.064C17.296 18.7653 17.472 18.3493 17.472 17.816C17.472 17.272 17.2853 16.84 16.912 16.52C16.5387 16.2 16.0427 16.04 15.424 16.04H13.024V19.512H15.488Z" fill="#95E362"/>
</svg>
