<svg width="26" height="26" viewBox="0 0 26 26" fill="none" xmlns="http://www.w3.org/2000/svg">
<path fill-rule="evenodd" clip-rule="evenodd" d="M12.9926 0.625611C19.8428 0.623174 25.3759 6.15386 25.3759 12.9992C25.3759 19.8469 19.8419 25.3768 12.9926 25.3744C6.14807 25.3727 0.61007 19.8266 0.62307 12.987C0.636882 6.14411 6.15701 0.626424 12.9926 0.625611ZM23.7671 13.0032C23.7712 7.06955 18.9555 2.24411 13.0226 2.23355C7.07351 2.22299 2.24888 7.03055 2.23182 12.9829C2.21638 18.9215 7.04751 23.7632 12.9893 23.7656C18.9393 23.7689 23.7639 18.9515 23.7671 13.0032Z" fill="white"/>
<path fill-rule="evenodd" clip-rule="evenodd" d="M14.5444 7.42383C14.9783 7.45795 15.2383 7.60502 15.3732 7.92108C15.5056 8.23552 15.4577 8.5337 15.2253 8.78477C14.9393 9.09108 14.6403 9.38439 14.3494 9.68339C13.4009 10.6535 12.453 11.6241 11.5057 12.5954C11.4228 12.6799 11.3212 12.7579 11.279 12.8595C11.2401 12.9617 11.2398 13.0747 11.2782 13.1771C11.3204 13.2795 11.422 13.3608 11.504 13.4436C12.7244 14.6973 13.9456 15.951 15.17 17.2015C15.4162 17.4525 15.5097 17.7418 15.3959 18.0733C15.2944 18.3739 15.0709 18.5543 14.754 18.6046C14.6337 18.6271 14.5097 18.6192 14.3932 18.5816C14.2767 18.544 14.1715 18.4779 14.087 18.3893C12.752 17.0235 11.4049 15.6691 10.0952 14.2813C9.39886 13.5436 9.41186 12.467 10.1139 11.7301C11.4227 10.3634 12.7458 9.01056 14.0829 7.67164C14.2202 7.53514 14.438 7.47908 14.5444 7.42383Z" fill="white"/>
</svg>
