<svg width="18" height="18" viewBox="0 0 18 18" fill="none" xmlns="http://www.w3.org/2000/svg">
<path d="M14.25 3.05H13.2C13.2 2.4711 12.7289 2 12.15 2C11.5711 2 11.1 2.4711 11.1 3.05H6.9C6.9 2.4711 6.4289 2 5.85 2C5.2711 2 4.8 2.4711 4.8 3.05H3.75C2.78505 3.05 2 3.83505 2 4.8V14.95C2 15.9149 2.78505 16.7 3.75 16.7H14.25C15.2149 16.7 16 15.9149 16 14.95V4.8C16 3.83505 15.2149 3.05 14.25 3.05ZM11.8 3.05C11.804 2.95988 11.8427 2.87479 11.9079 2.81245C11.9731 2.7501 12.0598 2.71531 12.15 2.71531C12.2402 2.71531 12.3269 2.7501 12.3921 2.81245C12.4573 2.87479 12.496 2.95988 12.5 3.05V3.75C12.496 3.84012 12.4573 3.92521 12.3921 3.98755C12.3269 4.0499 12.2402 4.08469 12.15 4.08469C12.0598 4.08469 11.9731 4.0499 11.9079 3.98755C11.8427 3.92521 11.804 3.84012 11.8 3.75V3.05ZM5.5 3.05C5.50403 2.95988 5.54267 2.87479 5.60786 2.81245C5.67306 2.7501 5.75979 2.71531 5.85 2.71531C5.94021 2.71531 6.02694 2.7501 6.09214 2.81245C6.15733 2.87479 6.19597 2.95988 6.2 3.05V3.75C6.19597 3.84012 6.15733 3.92521 6.09214 3.98755C6.02694 4.0499 5.94021 4.08469 5.85 4.08469C5.75979 4.08469 5.67306 4.0499 5.60786 3.98755C5.54267 3.92521 5.50403 3.84012 5.5 3.75V3.05ZM2.7 4.8C2.7 4.2211 3.1711 3.75 3.75 3.75H4.8C4.8 4.3289 5.2711 4.8 5.85 4.8C6.4289 4.8 6.9 4.3289 6.9 3.75H11.1C11.1 4.3289 11.5711 4.8 12.15 4.8C12.7289 4.8 13.2 4.3289 13.2 3.75H14.25C14.8289 3.75 15.3 4.2211 15.3 4.8V6.2H2.7V4.8ZM15.3 14.95C15.3 15.5289 14.8289 16 14.25 16H3.75C3.1711 16 2.7 15.5289 2.7 14.95V6.9H15.3V14.95Z" fill="#ABABAB"/>
<path d="M4.79961 10.75H5.84961C6.23566 10.75 6.54961 10.4361 6.54961 10.05V9.00005C6.54961 8.614 6.23566 8.30005 5.84961 8.30005H4.79961C4.41356 8.30005 4.09961 8.614 4.09961 9.00005V10.05C4.09961 10.4361 4.41356 10.75 4.79961 10.75ZM4.79961 9.00005H5.84961L5.85031 10.05H4.79961V9.00005ZM8.47461 10.75H9.52461C9.91066 10.75 10.2246 10.4361 10.2246 10.05V9.00005C10.2246 8.614 9.91066 8.30005 9.52461 8.30005H8.47461C8.08856 8.30005 7.77461 8.614 7.77461 9.00005V10.05C7.77461 10.4361 8.08856 10.75 8.47461 10.75ZM8.47461 9.00005H9.52461L9.52531 10.05H8.47461V9.00005ZM12.1496 10.75H13.1996C13.5857 10.75 13.8996 10.4361 13.8996 10.05V9.00005C13.8996 8.614 13.5857 8.30005 13.1996 8.30005H12.1496C11.7636 8.30005 11.4496 8.614 11.4496 9.00005V10.05C11.4496 10.4361 11.7636 10.75 12.1496 10.75ZM12.1496 9.00005H13.1996L13.2003 10.05H12.1496V9.00005ZM4.79961 14.6H5.84961C6.23566 14.6 6.54961 14.2861 6.54961 13.9V12.85C6.54961 12.464 6.23566 12.15 5.84961 12.15H4.79961C4.41356 12.15 4.09961 12.464 4.09961 12.85V13.9C4.09961 14.2861 4.41356 14.6 4.79961 14.6ZM4.79961 12.85H5.84961L5.85031 13.9H4.79961V12.85ZM8.47461 14.6H9.52461C9.91066 14.6 10.2246 14.2861 10.2246 13.9V12.85C10.2246 12.464 9.91066 12.15 9.52461 12.15H8.47461C8.08856 12.15 7.77461 12.464 7.77461 12.85V13.9C7.77461 14.2861 8.08856 14.6 8.47461 14.6ZM8.47461 12.85H9.52461L9.52531 13.9H8.47461V12.85ZM12.1496 14.6H13.1996C13.5857 14.6 13.8996 14.2861 13.8996 13.9V12.85C13.8996 12.464 13.5857 12.15 13.1996 12.15H12.1496C11.7636 12.15 11.4496 12.464 11.4496 12.85V13.9C11.4496 14.2861 11.7636 14.6 12.1496 14.6ZM12.1496 12.85H13.1996L13.2003 13.9H12.1496V12.85Z" fill="#ABABAB"/>
</svg>
