<svg width="50" height="50" viewBox="0 0 50 50" fill="none" xmlns="http://www.w3.org/2000/svg">
<rect width="50" height="50" rx="12.5" fill="#95E362" fill-opacity="0.05"/>
<g clip-path="url(#clip0_82_3058)">
<path d="M13.9885 29.5492C13.8972 29.5492 13.808 29.5211 13.7332 29.4685C13.6363 29.4007 13.5703 29.2972 13.5498 29.1807C13.5292 29.0643 13.5557 28.9444 13.6235 28.8475L18.1894 22.3225C18.2401 22.25 18.3112 22.1943 18.3937 22.1623C18.4761 22.1304 18.5662 22.1237 18.6525 22.143L25.5132 23.6834L32.0429 14.6253C32.0975 14.5496 32.1745 14.4929 32.2631 14.4632L38.0486 12.5259C38.2822 12.4479 38.5349 12.5737 38.6131 12.8072C38.6507 12.9194 38.6422 13.0418 38.5894 13.1477C38.5367 13.2536 38.444 13.3342 38.3319 13.3718L32.6825 15.2634L26.0646 24.4438C26.0135 24.5147 25.9427 24.569 25.861 24.6C25.7793 24.631 25.6903 24.6373 25.6051 24.6181L18.7487 23.0787L14.3543 29.3589C14.3131 29.4177 14.2584 29.4658 14.1947 29.4989C14.1311 29.532 14.0603 29.5493 13.9885 29.5492Z" fill="#95E362"/>
<path d="M18.7654 23.7478C19.4113 23.7478 19.935 23.2241 19.935 22.5781C19.935 21.9321 19.4113 21.4084 18.7654 21.4084C18.1194 21.4084 17.5957 21.9321 17.5957 22.5781C17.5957 23.2241 18.1194 23.7478 18.7654 23.7478Z" fill="#AEF480"/>
<path d="M25.5739 25.1552C26.2199 25.1552 26.7436 24.6316 26.7436 23.9856C26.7436 23.3396 26.2199 22.8159 25.5739 22.8159C24.928 22.8159 24.4043 23.3396 24.4043 23.9856C24.4043 24.6316 24.928 25.1552 25.5739 25.1552Z" fill="#AEF480"/>
<path d="M29.3122 20.2341C29.9582 20.2341 30.4819 19.7104 30.4819 19.0644C30.4819 18.4184 29.9582 17.8948 29.3122 17.8948C28.6662 17.8948 28.1426 18.4184 28.1426 19.0644C28.1426 19.7104 28.6662 20.2341 29.3122 20.2341Z" fill="#AEF480"/>
<path d="M32.406 15.9854C33.052 15.9854 33.5756 15.4618 33.5756 14.8158C33.5756 14.1698 33.052 13.6461 32.406 13.6461C31.76 13.6461 31.2363 14.1698 31.2363 14.8158C31.2363 15.4618 31.76 15.9854 32.406 15.9854Z" fill="#AEF480"/>
<path d="M37.9743 14.1185C38.6203 14.1185 39.144 13.5948 39.144 12.9488C39.144 12.3028 38.6203 11.7792 37.9743 11.7792C37.3284 11.7792 36.8047 12.3028 36.8047 12.9488C36.8047 13.5948 37.3284 14.1185 37.9743 14.1185Z" fill="#AEF480"/>
<path d="M39.1445 12.9489C39.1445 13.5947 38.6206 14.1185 37.9743 14.1185C37.5319 14.1185 37.1472 13.873 36.948 13.5108C36.954 13.5114 36.9605 13.5114 36.967 13.5114C37.6128 13.5114 38.1366 12.9876 38.1366 12.3418C38.1366 12.1379 38.0849 11.9464 37.9933 11.7799C38.6308 11.7894 39.1445 12.3091 39.1445 12.9489ZM33.5745 14.8158C33.5745 15.4615 33.0507 15.9854 32.4043 15.9854C31.962 15.9854 31.5772 15.7398 31.378 15.3777C31.384 15.3783 31.3905 15.3783 31.3971 15.3783C32.0428 15.3783 32.5667 14.8545 32.5667 14.2087C32.5667 14.0048 32.5149 13.8133 32.4234 13.6468C33.0607 13.6563 33.5745 14.176 33.5745 14.8158ZM30.4815 19.0644C30.4815 19.7102 29.9577 20.234 29.3113 20.234C28.869 20.234 28.4842 19.9884 28.285 19.6263C28.291 19.6269 28.2975 19.6269 28.3041 19.6269C28.9498 19.6269 29.4736 19.1031 29.4736 18.4573C29.4736 18.2534 29.4219 18.0619 29.3304 17.8954C29.9677 17.9049 30.4815 18.4246 30.4815 19.0644ZM26.744 23.9857C26.744 24.6314 26.2201 25.1553 25.5738 25.1553C25.1314 25.1553 24.7467 24.9097 24.5475 24.5476C24.5535 24.5482 24.56 24.5482 24.5665 24.5482C25.2123 24.5482 25.7361 24.0244 25.7361 23.3786C25.7361 23.1746 25.6844 22.9832 25.5928 22.8167C26.2302 22.8262 26.744 23.3459 26.744 23.9857ZM19.9348 22.5782C19.9348 23.2239 19.4109 23.7478 18.7646 23.7478C18.3222 23.7478 17.9375 23.5022 17.7383 23.1401C17.7443 23.1407 17.7508 23.1407 17.7573 23.1407C18.4031 23.1407 18.9269 22.6168 18.9269 21.9711C18.9269 21.7671 18.8752 21.5757 18.7836 21.4092C19.4211 21.4187 19.9348 21.9384 19.9348 22.5782Z" fill="#78DF34"/>
<path d="M13.9887 35.8632C13.8818 35.8633 13.7784 35.8248 13.6975 35.7548C13.6532 35.7165 13.6168 35.6699 13.5905 35.6176C13.5642 35.5653 13.5485 35.5083 13.5442 35.4499C13.5399 35.3915 13.5471 35.3328 13.5655 35.2772C13.5839 35.2216 13.6131 35.1701 13.6514 35.1258L17.874 30.2344C17.9473 30.1495 18.0499 30.0954 18.1614 30.0828L24.9499 29.3136C25.0144 29.3061 25.0799 29.313 25.1415 29.3337L32.1644 31.6817L35.8257 26.7236L37.7175 21.5132C37.7579 21.4021 37.8407 21.3115 37.9479 21.2614C38.055 21.2113 38.1777 21.2059 38.2889 21.2463C38.4 21.2866 38.4906 21.3695 38.5407 21.4766C38.5908 21.5838 38.5962 21.7064 38.5559 21.8176L36.642 27.0887C36.6274 27.1289 36.607 27.1669 36.5815 27.2014L32.6892 32.4724C32.6332 32.5481 32.5547 32.6042 32.4648 32.6326C32.375 32.661 32.2785 32.6602 32.1891 32.6304L24.9522 30.2108L18.4351 30.9493L14.3265 35.7086C14.2847 35.7572 14.2328 35.7962 14.1745 35.8229C14.1162 35.8496 14.0528 35.8633 13.9887 35.8632Z" fill="#342EC8"/>
<path d="M37.9743 22.835C38.6203 22.835 39.144 22.3114 39.144 21.6654C39.144 21.0194 38.6203 20.4957 37.9743 20.4957C37.3284 20.4957 36.8047 21.0194 36.8047 21.6654C36.8047 22.3114 37.3284 22.835 37.9743 22.835Z" fill="#524BFB"/>
<path d="M36.3083 27.5944C36.9543 27.5944 37.478 27.0708 37.478 26.4248C37.478 25.7788 36.9543 25.2551 36.3083 25.2551C35.6623 25.2551 35.1387 25.7788 35.1387 26.4248C35.1387 27.0708 35.6623 27.5944 36.3083 27.5944Z" fill="#524BFB"/>
<path d="M32.3181 33.029C32.9641 33.029 33.4877 32.5053 33.4877 31.8593C33.4877 31.2134 32.9641 30.6897 32.3181 30.6897C31.6721 30.6897 31.1484 31.2134 31.1484 31.8593C31.1484 32.5053 31.6721 33.029 32.3181 33.029Z" fill="#524BFB"/>
<path d="M24.9997 30.9401C25.6457 30.9401 26.1694 30.4165 26.1694 29.7705C26.1694 29.1245 25.6457 28.6008 24.9997 28.6008C24.3537 28.6008 23.8301 29.1245 23.8301 29.7705C23.8301 30.4165 24.3537 30.9401 24.9997 30.9401Z" fill="#524BFB"/>
<path d="M18.0857 31.8596C18.7316 31.8596 19.2553 31.3359 19.2553 30.6899C19.2553 30.0439 18.7316 29.5203 18.0857 29.5203C17.4397 29.5203 16.916 30.0439 16.916 30.6899C16.916 31.3359 17.4397 31.8596 18.0857 31.8596Z" fill="#524BFB"/>
<path d="M39.1436 21.6656C39.1436 22.3113 38.6197 22.8352 37.9734 22.8352C37.531 22.8352 37.1463 22.5896 36.9471 22.2275C36.9531 22.2281 36.9596 22.2281 36.9661 22.2281C37.6119 22.2281 38.1357 21.7043 38.1357 21.0585C38.1357 20.8545 38.084 20.6631 37.9924 20.4966C38.6298 20.5061 39.1436 21.0258 39.1436 21.6656ZM37.4763 26.4248C37.4763 27.0705 36.9524 27.5944 36.3067 27.5944C35.8643 27.5944 35.4796 27.3488 35.2804 26.9867C35.2863 26.9873 35.2928 26.9873 35.2988 26.9873C35.9451 26.9873 36.469 26.4635 36.469 25.8177C36.4693 25.6213 36.42 25.428 36.3257 25.2558C36.9625 25.2653 37.4763 25.7856 37.4763 26.4248ZM33.4876 31.8596C33.4876 32.5053 32.9638 33.0292 32.318 33.0292C31.8757 33.0292 31.4903 32.7836 31.2911 32.4215C31.2977 32.4221 31.3036 32.4221 31.3102 32.4221C31.9559 32.4221 32.4798 31.8982 32.4798 31.2525C32.4798 31.0485 32.428 30.8571 32.3365 30.6906C32.9739 30.7001 33.4876 31.2192 33.4876 31.8596ZM26.1686 29.7701C26.1686 30.4164 25.6448 30.9403 24.999 30.9403C24.5567 30.9403 24.1719 30.6947 23.9727 30.332C23.9787 30.3326 23.9852 30.3326 23.9912 30.3326C24.6375 30.3326 25.1608 29.8093 25.1608 29.163C25.1611 28.9666 25.1118 28.7733 25.0175 28.6011C25.6549 28.6106 26.1686 29.1303 26.1686 29.7701ZM19.2545 30.69C19.2545 31.3357 18.7312 31.8596 18.0849 31.8596C17.6425 31.8596 17.2578 31.614 17.0586 31.2519C17.0645 31.2525 17.0711 31.2525 17.0776 31.2525C17.7234 31.2525 18.2472 30.7286 18.2472 30.0829C18.2476 29.8865 18.1983 29.6932 18.1039 29.521C18.7413 29.5305 19.2545 30.0502 19.2545 30.69Z" fill="#2A24BD"/>
<path d="M12.0137 10C11.9552 9.99999 11.8972 10.0115 11.8431 10.0339C11.7889 10.0563 11.7398 10.0892 11.6984 10.1306C11.657 10.172 11.6241 10.2212 11.6017 10.2753C11.5793 10.3294 11.5678 10.3874 11.5678 10.4459V12.5029H11.0241C10.9058 12.5029 10.7924 12.5498 10.7087 12.6335C10.6251 12.7171 10.5781 12.8305 10.5781 12.9488C10.5781 13.0671 10.6251 13.1805 10.7087 13.2641C10.7924 13.3478 10.9058 13.3947 11.0241 13.3947H11.5678V15.7126H11.0241C10.9058 15.7126 10.7924 15.7596 10.7087 15.8432C10.6251 15.9268 10.5781 16.0403 10.5781 16.1585C10.5781 16.2768 10.6251 16.3902 10.7087 16.4739C10.7924 16.5575 10.9058 16.6045 11.0241 16.6045H11.5678V18.9224H11.0241C10.9058 18.9224 10.7924 18.9693 10.7087 19.053C10.6251 19.1366 10.5781 19.25 10.5781 19.3683C10.5781 19.4866 10.6251 19.6 10.7087 19.6836C10.7924 19.7673 10.9058 19.8142 11.0241 19.8142H11.5678V22.132H11.0241C10.9058 22.132 10.7924 22.179 10.7087 22.2627C10.6251 22.3463 10.5781 22.4597 10.5781 22.578C10.5781 22.6963 10.6251 22.8097 10.7087 22.8933C10.7924 22.9769 10.9058 23.0239 11.0241 23.0239H11.5678V25.3418H11.0241C10.9058 25.3418 10.7924 25.3888 10.7087 25.4724C10.6251 25.556 10.5781 25.6695 10.5781 25.7877C10.5781 25.906 10.6251 26.0194 10.7087 26.1031C10.7924 26.1867 10.9058 26.2337 11.0241 26.2337H11.5678V28.5515H11.0241C10.9058 28.5515 10.7924 28.5985 10.7087 28.6822C10.6251 28.7658 10.5781 28.8792 10.5781 28.9975C10.5781 29.1158 10.6251 29.2292 10.7087 29.3128C10.7924 29.3964 10.9058 29.4434 11.0241 29.4434H11.5678V31.7612H11.0241C10.9058 31.7612 10.7924 31.8082 10.7087 31.8918C10.6251 31.9755 10.5781 32.0889 10.5781 32.2072C10.5781 32.3254 10.6251 32.4389 10.7087 32.5225C10.7924 32.6061 10.9058 32.6531 11.0241 32.6531H11.5678V34.971H11.0241C10.9058 34.971 10.7924 35.018 10.7087 35.1016C10.6251 35.1852 10.5781 35.2987 10.5781 35.4169C10.5781 35.5352 10.6251 35.6486 10.7087 35.7323C10.7924 35.8159 10.9058 35.8629 11.0241 35.8629H11.5678V38.5781C11.5678 38.6964 11.6148 38.8098 11.6984 38.8934C11.782 38.9771 11.8954 39.0241 12.0137 39.0241C12.132 39.0241 12.2454 38.9771 12.329 38.8934C12.4127 38.8098 12.4597 38.6964 12.4597 38.5781V10.4459C12.4597 10.3277 12.4127 10.2142 12.329 10.1306C12.2454 10.047 12.132 10 12.0137 10Z" fill="#95E362"/>
<path d="M39.4881 40H10.5116C10.434 40 10.3595 39.9691 10.3045 39.9142C10.2496 39.8593 10.2188 39.7848 10.2188 39.7071V38.2079C10.2188 38.1302 10.2496 38.0557 10.3045 38.0008C10.3595 37.9459 10.434 37.915 10.5116 37.915H39.4881C39.5657 37.915 39.6402 37.9459 39.6952 38.0008C39.7501 38.0557 39.7809 38.1302 39.7809 38.2079V39.7071C39.781 39.7456 39.7734 39.7837 39.7587 39.8192C39.744 39.8547 39.7224 39.887 39.6952 39.9142C39.668 39.9414 39.6357 39.963 39.6002 39.9777C39.5647 39.9924 39.5266 40 39.4881 40Z" fill="#D1F560"/>
<path d="M39.7814 38.2126V39.7027C39.7814 39.7815 39.75 39.8571 39.6943 39.9129C39.6385 39.9686 39.5629 40 39.4841 40H38.2949C38.3738 40 38.4494 39.9686 38.5051 39.9129C38.5609 39.8571 38.5922 39.7815 38.5923 39.7027V38.2126C38.5922 38.1338 38.5609 38.0582 38.5051 38.0024C38.4494 37.9466 38.3738 37.9153 38.2949 37.9153H39.4841C39.563 37.9153 39.6386 37.9467 39.6943 38.0024C39.7501 38.0582 39.7814 38.1338 39.7814 38.2126Z" fill="#8D9CA8"/>
</g>
<defs>
<clipPath id="clip0_82_3058">
<rect width="30" height="30" fill="white" transform="translate(10 10)"/>
</clipPath>
</defs>
</svg>
