<svg width="24" height="24" viewBox="0 0 24 24" fill="none" xmlns="http://www.w3.org/2000/svg">
<path fill-rule="evenodd" clip-rule="evenodd" d="M4.79306 17.3792C4.60542 17.5668 4.5 17.8213 4.5 18.0867C4.5 18.3521 4.60542 18.6066 4.79306 18.7942C4.9807 18.9818 5.23519 19.0873 5.50056 19.0873C5.76592 19.0873 6.02042 18.9818 6.20806 18.7942L11.7931 13.2072L17.3791 18.7932C17.5677 18.9754 17.8203 19.0762 18.0825 19.0739C18.3447 19.0716 18.5955 18.9664 18.7809 18.781C18.9663 18.5956 19.0715 18.3448 19.0737 18.0826C19.076 17.8204 18.9752 17.5678 18.7931 17.3792L13.2071 11.7932L18.7931 6.2072C18.9806 6.01956 19.0859 5.76512 19.0858 5.49985C19.0857 5.23458 18.9802 4.98021 18.7926 4.7927C18.6049 4.60519 18.3505 4.49991 18.0852 4.5C17.8199 4.50009 17.5656 4.60556 17.3781 4.7932L11.7931 10.3792L6.20706 4.7932C6.01845 4.61104 5.76585 4.51025 5.50365 4.51253C5.24146 4.51481 4.99065 4.61998 4.80524 4.80538C4.61983 4.99079 4.51466 5.2416 4.51238 5.5038C4.5101 5.766 4.6109 6.0186 4.79306 6.2072L10.3791 11.7932L4.79306 17.3792Z" fill="white"/>
</svg>
