<svg width="17" height="16" viewBox="0 0 17 16" fill="none" xmlns="http://www.w3.org/2000/svg">
<path d="M4 11.3539V2.38892C4 2.11292 4.2245 1.88892 4.5 1.88892H10.935C11.0676 1.88892 11.1948 1.83624 11.2886 1.74247C11.3823 1.6487 11.435 1.52152 11.435 1.38892C11.435 1.25631 11.3823 1.12913 11.2886 1.03536C11.1948 0.941594 11.0676 0.888916 10.935 0.888916H4.5C3.673 0.888916 3 1.56192 3 2.38892V11.3539C3 11.4865 3.05268 11.6137 3.14645 11.7075C3.24021 11.8012 3.36739 11.8539 3.5 11.8539C3.63261 11.8539 3.75979 11.8012 3.85355 11.7075C3.94732 11.6137 4 11.4865 4 11.3539Z" fill="#ABABAB"/>
<path d="M12.9702 2.92395H6.53516C5.70816 2.92395 5.03516 3.59695 5.03516 4.42395V13.389C5.03516 14.216 5.70816 14.889 6.53516 14.889H12.9702C13.7972 14.889 14.4702 14.216 14.4702 13.389V4.42395C14.4702 3.59695 13.7972 2.92395 12.9702 2.92395ZM13.4702 13.389C13.4702 13.665 13.2457 13.889 12.9702 13.889H6.53516C6.25966 13.889 6.03516 13.665 6.03516 13.389V4.42395C6.03516 4.14795 6.25966 3.92395 6.53516 3.92395H12.9702C13.2457 3.92395 13.4702 4.14795 13.4702 4.42395V13.389Z" fill="#ABABAB"/>
</svg>
