<svg width="17" height="16" viewBox="0 0 17 16" fill="none" xmlns="http://www.w3.org/2000/svg">
<path d="M11.7262 14.889H6.48135C5.9566 14.8814 5.45406 14.676 5.07421 14.3139C4.69436 13.9517 4.46521 13.4596 4.43257 12.9358L3.81111 3.48409C3.80792 3.41556 3.81835 3.34708 3.8418 3.28261C3.86524 3.21814 3.90123 3.15895 3.94769 3.10848C3.99556 3.05617 4.0535 3.01407 4.11805 2.98473C4.1826 2.95539 4.25242 2.93941 4.3233 2.93775H13.8843C13.9545 2.93759 14.024 2.95188 14.0885 2.97973C14.153 3.00758 14.211 3.04839 14.2591 3.09963C14.3071 3.15087 14.3441 3.21144 14.3677 3.27758C14.3914 3.34372 14.4012 3.41401 14.3965 3.48409L13.8023 12.9358C13.7693 13.4643 13.5363 13.9603 13.1507 14.3231C12.7651 14.6859 12.2557 14.8883 11.7262 14.889ZM4.89696 3.96214L5.42281 12.8743C5.44019 13.1431 5.55934 13.3951 5.756 13.5791C5.95266 13.763 6.21205 13.8651 6.48135 13.8646H11.7262C11.9951 13.8635 12.2535 13.7609 12.4499 13.5772C12.6462 13.3936 12.7658 13.1425 12.7848 12.8743L13.3379 3.99628L4.89696 3.96214Z" fill="#ABABAB"/>
<path d="M15.2502 3.96213H2.95751C2.82167 3.96213 2.69139 3.90817 2.59533 3.81212C2.49928 3.71606 2.44531 3.58578 2.44531 3.44994C2.44531 3.3141 2.49928 3.18382 2.59533 3.08776C2.69139 2.99171 2.82167 2.93774 2.95751 2.93774H15.2502C15.386 2.93774 15.5163 2.99171 15.6124 3.08776C15.7084 3.18382 15.7624 3.3141 15.7624 3.44994C15.7624 3.58578 15.7084 3.71606 15.6124 3.81212C15.5163 3.90817 15.386 3.96213 15.2502 3.96213Z" fill="#ABABAB"/>
<path d="M11.1527 3.96209H7.05516C6.91987 3.96032 6.79062 3.90579 6.69494 3.81011C6.59927 3.71444 6.54474 3.58518 6.54297 3.44989V2.22062C6.55163 1.87016 6.69471 1.53644 6.9426 1.28855C7.19049 1.04066 7.52421 0.897573 7.87468 0.888916H10.3332C10.6895 0.897826 11.0282 1.04565 11.277 1.30084C11.5258 1.55603 11.665 1.89836 11.6649 2.25477V3.44989C11.6632 3.58518 11.6086 3.71444 11.5129 3.81011C11.4173 3.90579 11.288 3.96032 11.1527 3.96209ZM7.56736 2.9377H10.6405V2.25477C10.6405 2.17326 10.6082 2.0951 10.5505 2.03746C10.4929 1.97983 10.4147 1.94745 10.3332 1.94745H7.87468C7.79317 1.94745 7.715 1.97983 7.65737 2.03746C7.59974 2.0951 7.56736 2.17326 7.56736 2.25477V2.9377ZM11.1527 12.1572C11.0174 12.1554 10.8882 12.1009 10.7925 12.0052C10.6968 11.9096 10.6423 11.7803 10.6405 11.645V6.1816C10.6405 6.04576 10.6945 5.91548 10.7905 5.81942C10.8866 5.72337 11.0169 5.6694 11.1527 5.6694C11.2886 5.6694 11.4188 5.72337 11.5149 5.81942C11.611 5.91548 11.6649 6.04576 11.6649 6.1816V11.645C11.6632 11.7803 11.6086 11.9096 11.5129 12.0052C11.4173 12.1009 11.288 12.1554 11.1527 12.1572ZM7.05516 12.1572C6.91987 12.1554 6.79062 12.1009 6.69494 12.0052C6.59927 11.9096 6.54474 11.7803 6.54297 11.645V6.1816C6.54297 6.04576 6.59693 5.91548 6.69299 5.81942C6.78904 5.72337 6.91932 5.6694 7.05516 5.6694C7.19101 5.6694 7.32129 5.72337 7.41734 5.81942C7.5134 5.91548 7.56736 6.04576 7.56736 6.1816V11.645C7.56559 11.7803 7.51106 11.9096 7.41538 12.0052C7.31971 12.1009 7.19046 12.1554 7.05516 12.1572ZM9.10394 12.1572C8.96865 12.1554 8.8394 12.1009 8.74372 12.0052C8.64805 11.9096 8.59352 11.7803 8.59175 11.645V6.1816C8.59175 6.04576 8.64571 5.91548 8.74177 5.81942C8.83782 5.72337 8.9681 5.6694 9.10394 5.6694C9.23979 5.6694 9.37007 5.72337 9.46612 5.81942C9.56218 5.91548 9.61614 6.04576 9.61614 6.1816V11.645C9.61437 11.7803 9.55984 11.9096 9.46416 12.0052C9.36849 12.1009 9.23924 12.1554 9.10394 12.1572Z" fill="#ABABAB"/>
</svg>
