<svg width="26" height="26" viewBox="0 0 26 26" fill="none" xmlns="http://www.w3.org/2000/svg">
<path d="M23.5265 2.11436C18.8599 1.52682 14.3126 3.23411 10.8545 6.52311C5.89352 5.84294 2.81097 9.79522 2.35962 13.023C2.31409 13.2718 2.54409 13.5108 2.7941 13.4743L6.51639 13.0222C6.78053 13.2863 7.11022 13.6149 7.52193 14.0246L6.88532 15.308C6.77586 15.5289 6.73849 15.7785 6.77849 16.0217C6.81849 16.265 6.93383 16.4895 7.10825 16.6636L9.31989 18.8753C9.49406 19.0497 9.71862 19.165 9.96185 19.2049C10.2051 19.2449 10.4547 19.2074 10.6755 19.0978L11.957 18.4624L13.0963 19.6022C13.22 19.7258 13.4095 19.7517 13.5614 19.6697C14.7887 19.0024 16.8065 17.752 18.741 15.8744C18.9529 19.6759 15.9866 22.1753 13.3546 22.7412L13.5281 21.3185C13.5811 20.8028 12.8181 20.7125 12.7494 21.2235L12.51 23.1898C12.5025 23.2502 12.5093 23.3116 12.5296 23.3689C12.55 23.4263 12.5835 23.4781 12.6273 23.5203C12.6712 23.5625 12.7243 23.5939 12.7824 23.612C12.8405 23.6301 12.902 23.6345 12.9621 23.6247C16.0015 23.1992 20.1461 20.2513 19.4628 15.1373C22.4146 12.1686 24.5615 7.10869 23.8696 2.457C23.8592 2.36958 23.8197 2.28819 23.7575 2.2259C23.6953 2.16362 23.6139 2.12406 23.5265 2.11358V2.11436ZM10.3266 18.3945C10.2531 18.431 10.17 18.4436 10.089 18.4303C10.0081 18.4171 9.93327 18.3787 9.87525 18.3207L7.66322 16.1091C7.60512 16.0511 7.56667 15.9764 7.55329 15.8954C7.53991 15.8144 7.55228 15.7313 7.58865 15.6577L8.1079 14.6102C9.12325 15.6275 10.3553 16.8607 11.3714 17.8772L10.3266 18.3949V18.3945ZM22.972 6.77508C21.7757 13.4402 16.1012 17.347 13.4425 18.8388C12.1473 17.544 8.93054 14.3201 7.14515 12.541C7.72288 11.4951 8.68053 10.079 9.51259 9.09268C9.83835 8.69628 9.23629 8.19782 8.90778 8.59188C8.03843 9.61743 6.99483 11.1713 6.41278 12.2439L3.24153 12.6293C3.51312 11.5265 4.34636 9.22377 6.70949 7.98353C8.39363 7.09927 10.064 7.1919 10.9098 7.32416C11.0295 7.33908 11.154 7.31199 11.2466 7.22761C14.4806 4.10267 18.7226 2.39656 23.1238 2.86008C23.2546 4.16582 23.2035 5.4834 22.972 6.77508ZM7.14868 18.8486C4.43899 16.4352 2.03857 21.1988 2.00129 23.5662C1.98166 23.7946 2.18968 24.0027 2.41771 23.9826C4.77927 23.9457 9.53143 21.5551 7.14868 18.8486ZM6.40885 21.5084C5.80593 22.0476 5.11035 22.4731 4.35578 22.7644C3.86418 22.9537 3.352 23.0845 2.82981 23.1541C3.00718 21.821 3.58186 20.5722 4.47902 19.5704C5.87861 17.9337 8.06316 20.0853 6.40885 21.5084Z" fill="#95E362"/>
<path d="M14.306 7.21911C12.3232 9.16268 13.7597 12.6314 16.5357 12.6032C19.3145 12.6267 20.7447 9.17288 18.7662 7.21911C17.5365 5.98946 15.5353 5.98946 14.306 7.21911ZM18.2112 11.1243C15.9293 13.2716 12.7141 10.0548 14.861 7.77408C17.1566 5.63623 20.3487 8.82907 18.2112 11.1243Z" fill="#95E362"/>
</svg>
