<svg width="35" height="35" viewBox="0 0 35 35" fill="none" xmlns="http://www.w3.org/2000/svg">
<rect width="35" height="35" rx="5" fill="#191F18"/>
<g clip-path="url(#clip0_82_7791)">
<path d="M28.5214 6.11965C23.6391 5.50495 18.8817 7.29115 15.2637 10.7321C10.0735 10.0205 6.84846 14.1555 6.37624 17.5324C6.32861 17.7928 6.56923 18.0428 6.8308 18.0046L10.7251 17.5316C11.0015 17.808 11.3464 18.1517 11.7771 18.5803L11.1111 19.9231C10.9966 20.1541 10.9575 20.4153 10.9993 20.6698C11.0412 20.9242 11.1619 21.1591 11.3443 21.3414L13.6582 23.6552C13.8404 23.8377 14.0753 23.9583 14.3298 24.0001C14.5843 24.0419 14.8455 24.0027 15.0765 23.888L16.4171 23.2232L17.6092 24.4157C17.7385 24.545 17.9369 24.5721 18.0958 24.4863C19.3798 23.7882 21.4908 22.48 23.5147 20.5156C23.7365 24.4929 20.633 27.1077 17.8794 27.6998L18.0609 26.2113C18.1163 25.6718 17.318 25.5773 17.2462 26.1119L16.9957 28.1691C16.9879 28.2324 16.995 28.2965 17.0163 28.3565C17.0376 28.4165 17.0726 28.4707 17.1185 28.5149C17.1644 28.559 17.2199 28.5919 17.2807 28.6108C17.3415 28.6298 17.4059 28.6343 17.4687 28.6241C20.6486 28.179 24.9847 25.0948 24.2699 19.7444C27.3581 16.6385 29.6042 11.3448 28.8803 6.47812C28.8694 6.38666 28.8281 6.30151 28.7631 6.23634C28.698 6.17118 28.6129 6.12979 28.5214 6.11883V6.11965ZM14.7114 23.1522C14.6346 23.1904 14.5476 23.2035 14.4629 23.1897C14.3782 23.1758 14.2999 23.1357 14.2392 23.075L11.925 20.7611C11.8642 20.7005 11.8239 20.6223 11.8099 20.5376C11.7959 20.4529 11.8089 20.3659 11.8469 20.2889L12.3902 19.193C13.4525 20.2573 14.7414 21.5475 15.8045 22.611L14.7114 23.1526V23.1522ZM27.9412 10.9958C26.6896 17.9689 20.7529 22.0562 17.9713 23.617C16.6163 22.2624 13.2509 18.8895 11.3829 17.0282C11.9874 15.9339 12.9893 14.4524 13.8598 13.4205C14.2006 13.0058 13.5707 12.4843 13.227 12.8965C12.3175 13.9695 11.2257 15.5951 10.6167 16.7174L7.29891 17.1206C7.58306 15.9667 8.4548 13.5576 10.9271 12.2601C12.6891 11.3349 14.4367 11.4318 15.3216 11.5702C15.4468 11.5858 15.577 11.5575 15.6739 11.4692C19.0574 8.19985 23.4954 6.41489 28.1001 6.89983C28.237 8.26592 28.1835 9.64439 27.9412 10.9958ZM11.3866 23.6273C8.55171 21.1024 6.04035 26.0861 6.00135 28.5629C5.98081 28.8019 6.19844 29.0195 6.43701 28.9986C8.90772 28.96 13.8795 26.4589 11.3866 23.6273ZM10.6126 26.4101C9.98183 26.9741 9.2541 27.4193 8.46466 27.724C7.95033 27.9221 7.41448 28.059 6.86817 28.1318C7.05372 26.7371 7.65497 25.4306 8.59359 24.3824C10.0579 22.6701 12.3434 24.9211 10.6126 26.4101Z" fill="#95E362"/>
<path d="M18.874 11.4602C16.7995 13.4936 18.3024 17.1227 21.2067 17.0931C24.1139 17.1177 25.6102 13.5043 23.5403 11.4602C22.2538 10.1737 20.1601 10.1737 18.874 11.4602ZM22.9597 15.5459C20.5723 17.7924 17.2085 14.427 19.4546 12.0408C21.8563 9.80418 25.1959 13.1446 22.9597 15.5459Z" fill="#95E362"/>
</g>
<defs>
<clipPath id="clip0_82_7791">
<rect width="23" height="23" fill="white" transform="translate(6 6)"/>
</clipPath>
</defs>
</svg>
