<svg width="30" height="30" viewBox="0 0 30 30" fill="none" xmlns="http://www.w3.org/2000/svg">
<g clip-path="url(#clip0_258_4935)">
<path fill-rule="evenodd" clip-rule="evenodd" d="M0 3.46154C0 2.54348 0.364697 1.66303 1.01386 1.01386C1.66303 0.364697 2.54348 0 3.46154 0H26.5385C27.4565 0 28.337 0.364697 28.9861 1.01386C29.6353 1.66303 30 2.54348 30 3.46154V15C30 15.306 29.8784 15.5995 29.662 15.8159C29.4457 16.0323 29.1522 16.1538 28.8462 16.1538C28.5401 16.1538 28.2466 16.0323 28.0303 15.8159C27.8139 15.5995 27.6923 15.306 27.6923 15V3.46154C27.6923 3.15552 27.5707 2.86203 27.3544 2.64565C27.138 2.42926 26.8445 2.30769 26.5385 2.30769H3.46154C3.15552 2.30769 2.86203 2.42926 2.64565 2.64565C2.42926 2.86203 2.30769 3.15552 2.30769 3.46154V26.5385C2.30769 27.1754 2.82462 27.6923 3.46154 27.6923H15C15.306 27.6923 15.5995 27.8139 15.8159 28.0303C16.0323 28.2466 16.1538 28.5401 16.1538 28.8462C16.1538 29.1522 16.0323 29.4457 15.8159 29.662C15.5995 29.8784 15.306 30 15 30H3.46154C2.54348 30 1.66303 29.6353 1.01386 28.9861C0.364697 28.337 0 27.4565 0 26.5385V3.46154Z" fill="#95E362"/>
<path fill-rule="evenodd" clip-rule="evenodd" d="M21.154 17.6925C20.2359 17.6925 19.3555 18.0572 18.7063 18.7063C18.0572 19.3555 17.6925 20.2359 17.6925 21.154C17.6925 22.0721 18.0572 22.9525 18.7063 23.6017C19.3555 24.2508 20.2359 24.6155 21.154 24.6155C22.0721 24.6155 22.9525 24.2508 23.6017 23.6017C24.2508 22.9525 24.6155 22.0721 24.6155 21.154C24.6155 20.2359 24.2508 19.3555 23.6017 18.7063C22.9525 18.0572 22.0721 17.6925 21.154 17.6925ZM15.3848 21.154C15.3848 19.6239 15.9926 18.1565 17.0745 17.0745C18.1565 15.9926 19.6239 15.3848 21.154 15.3848C22.6841 15.3848 24.1515 15.9926 25.2335 17.0745C26.3154 18.1565 26.9232 19.6239 26.9232 21.154C26.9232 22.6841 26.3154 24.1515 25.2335 25.2335C24.1515 26.3154 22.6841 26.9232 21.154 26.9232C19.6239 26.9232 18.1565 26.3154 17.0745 25.2335C15.9926 24.1515 15.3848 22.6841 15.3848 21.154Z" fill="#95E362"/>
<path fill-rule="evenodd" clip-rule="evenodd" d="M24.0989 23.5108C24.2899 23.2718 24.568 23.1183 24.8721 23.0843C25.1762 23.0502 25.4813 23.1384 25.7205 23.3293L29.5666 26.4062C29.685 26.5009 29.7836 26.6179 29.8567 26.7507C29.9299 26.8834 29.9762 27.0293 29.993 27.1799C30.0098 27.3306 29.9967 27.4831 29.9546 27.6287C29.9124 27.7743 29.842 27.9101 29.7474 28.0285C29.6527 28.1469 29.5357 28.2455 29.4029 28.3187C29.2702 28.3918 29.1243 28.4381 28.9737 28.4549C28.823 28.4717 28.6705 28.4586 28.5249 28.4165C28.3793 28.3744 28.2435 28.304 28.1251 28.2093L24.2789 25.1324C24.0401 24.9412 23.8869 24.663 23.8532 24.3589C23.8194 24.0548 23.9078 23.7498 24.0989 23.5108ZM6.1543 8.84623C6.1543 8.54021 6.27586 8.24672 6.49225 8.03034C6.70864 7.81395 7.00212 7.69238 7.30814 7.69238H22.6928C22.9988 7.69238 23.2923 7.81395 23.5087 8.03034C23.725 8.24672 23.8466 8.54021 23.8466 8.84623C23.8466 9.15225 23.725 9.44573 23.5087 9.66212C23.2923 9.87851 22.9988 10.0001 22.6928 10.0001H7.30814C7.00212 10.0001 6.70864 9.87851 6.49225 9.66212C6.27586 9.44573 6.1543 9.15225 6.1543 8.84623ZM6.1543 15.0001C6.1543 14.6941 6.27586 14.4006 6.49225 14.1842C6.70864 13.9678 7.00212 13.8462 7.30814 13.8462H13.462C13.768 13.8462 14.0615 13.9678 14.2779 14.1842C14.4943 14.4006 14.6158 14.6941 14.6158 15.0001C14.6158 15.3061 14.4943 15.5996 14.2779 15.816C14.0615 16.0324 13.768 16.1539 13.462 16.1539H7.30814C7.00212 16.1539 6.70864 16.0324 6.49225 15.816C6.27586 15.5996 6.1543 15.3061 6.1543 15.0001Z" fill="#95E362"/>
</g>
<defs>
<clipPath id="clip0_258_4935">
<rect width="30" height="30" fill="white"/>
</clipPath>
</defs>
</svg>
