<svg width="35" height="35" viewBox="0 0 35 35" fill="none" xmlns="http://www.w3.org/2000/svg">
<rect width="35" height="35" rx="5" fill="#95E362"/>
<g clip-path="url(#clip0_82_7841)">
<path d="M16.4151 29.0001C10.6738 29.0001 6 24.3263 6 18.585C6 15.8033 7.08491 13.1909 9.05075 11.2207C11.0166 9.25049 13.6334 8.16992 16.4151 8.16992C16.6538 8.16992 16.8491 8.3652 16.8491 8.60388V18.1511H26.3962C26.6349 18.1511 26.8302 18.3463 26.8302 18.585C26.8302 21.3667 25.7453 23.9792 23.7794 25.9494C21.8136 27.9195 19.1968 29.0001 16.4151 29.0001ZM15.9811 9.04653C13.5943 9.15502 11.3681 10.1314 9.66698 11.8369C7.8617 13.6422 6.86792 16.0377 6.86792 18.585C6.86792 23.849 11.1511 28.1322 16.4151 28.1322C18.9625 28.1322 21.3623 27.1384 23.1632 25.3331C24.8643 23.632 25.8451 21.4014 25.9536 19.019H16.4151C16.1764 19.019 15.9811 18.8237 15.9811 18.585V9.04653Z" fill="#080808"/>
<path d="M28.5655 16.8491H18.5844C18.3457 16.8491 18.1504 16.6538 18.1504 16.4151V6.43396C18.1504 6.19528 18.3457 6 18.5844 6C21.3661 6 23.9785 7.08491 25.9487 9.05075C27.9189 11.0166 28.9994 13.6334 28.9994 16.4151C28.9994 16.6538 28.8042 16.8491 28.5655 16.8491Z" fill="#080808"/>
<path d="M19.0195 15.9812H28.1241C28.0156 13.5944 27.0392 11.3682 25.3337 9.66709C23.6325 7.96595 21.402 6.9852 19.0195 6.87671V15.9812Z" fill="#080808"/>
</g>
<defs>
<clipPath id="clip0_82_7841">
<rect width="23" height="23" fill="white" transform="translate(6 6)"/>
</clipPath>
</defs>
</svg>
