<svg width="35" height="35" viewBox="0 0 35 35" fill="none" xmlns="http://www.w3.org/2000/svg">
<rect width="35" height="35" rx="5" fill="#95E362"/>
<g clip-path="url(#clip0_82_7861)">
<path d="M26.3118 16.2421C26.27 16.2421 26.2285 16.2341 26.1897 16.2186L23.6937 15.2256C23.6334 15.2016 23.5814 15.1605 23.5443 15.1073C23.5072 15.0541 23.4865 14.9912 23.4848 14.9263C23.4832 14.8615 23.5006 14.7975 23.535 14.7425C23.5694 14.6875 23.6191 14.6438 23.6781 14.6168C23.9235 14.5039 24.1163 14.3011 24.2167 14.0504C24.2677 13.922 24.2929 13.7848 24.2908 13.6467C24.2887 13.5086 24.2594 13.3723 24.2046 13.2455C24.1498 13.1187 24.0705 13.0039 23.9713 12.9078C23.8721 12.8117 23.7549 12.736 23.6265 12.6852C23.3674 12.5822 23.078 12.5861 22.8218 12.6962C22.5656 12.8063 22.3636 13.0136 22.26 13.2725C22.2094 13.3959 22.1835 13.5281 22.184 13.6615C22.1844 13.795 22.2112 13.927 22.2627 14.0501C22.2883 14.1102 22.2956 14.1766 22.2836 14.2408C22.2716 14.3051 22.2409 14.3644 22.1952 14.4112C22.1496 14.458 22.0911 14.4902 22.0272 14.5038C21.9633 14.5174 21.8967 14.5118 21.836 14.4877L19.3304 13.492C19.29 13.4759 19.2531 13.452 19.2218 13.4217C19.1906 13.3914 19.1657 13.3552 19.1485 13.3152C19.1313 13.2753 19.1221 13.2323 19.1215 13.1888C19.1209 13.1452 19.1289 13.102 19.145 13.0616L19.917 11.1201C19.7015 11.1189 19.4881 11.0773 19.288 10.9973C19.0545 10.9036 18.8446 10.7595 18.673 10.5755C18.5015 10.3914 18.3725 10.1719 18.2954 9.93237C18.2183 9.69288 18.1948 9.43934 18.2267 9.18976C18.2586 8.94018 18.3451 8.70069 18.48 8.48829C18.6148 8.27589 18.7948 8.0958 19.0072 7.96081C19.2195 7.82582 19.4589 7.73923 19.7085 7.70721C19.9581 7.67518 20.2116 7.6985 20.4511 7.77551C20.6907 7.85252 20.9103 7.98133 21.0945 8.15278L21.8684 6.20865C21.8845 6.16823 21.9084 6.13137 21.9387 6.10019C21.9691 6.069 22.0052 6.04411 22.0452 6.02692C22.0852 6.00974 22.1281 6.0006 22.1716 6.00003C22.2152 5.99946 22.2583 6.00747 22.2987 6.0236L28.5525 8.5093C28.7943 8.60576 28.988 8.79414 29.0911 9.03316C29.1943 9.27219 29.1984 9.54234 29.1027 9.78443L26.62 16.0313C26.5958 16.0934 26.5535 16.1467 26.4985 16.1843C26.4435 16.2219 26.3784 16.2421 26.3118 16.2421ZM24.4911 14.8313L26.1261 15.4808L28.4867 9.54145C28.5168 9.46252 28.5149 9.37495 28.4815 9.29736C28.448 9.21978 28.3857 9.1583 28.3076 9.12601L22.3616 6.76114L21.4917 8.9542C21.4677 9.01471 21.4264 9.06681 21.373 9.10398C21.3196 9.14115 21.2564 9.16174 21.1913 9.16319C21.1262 9.16464 21.0622 9.14688 21.0072 9.11212C20.9521 9.07736 20.9086 9.02716 20.8819 8.96778C20.7963 8.78026 20.6575 8.62203 20.4828 8.51275C20.308 8.40347 20.1049 8.34796 19.8989 8.35312C19.6928 8.35828 19.4928 8.42388 19.3237 8.54177C19.1546 8.65967 19.0239 8.82465 18.9478 9.01622C18.8717 9.20779 18.8536 9.41749 18.8957 9.61928C18.9378 9.82106 19.0383 10.006 19.1846 10.1512C19.331 10.2963 19.5168 10.3953 19.7189 10.4357C19.921 10.4761 20.1306 10.4563 20.3215 10.3786C20.3816 10.3539 20.4477 10.3474 20.5115 10.3599C20.5752 10.3725 20.6339 10.4035 20.6802 10.4492C20.7264 10.4949 20.7582 10.5532 20.7715 10.6168C20.7848 10.6804 20.7792 10.7466 20.7552 10.807L19.8826 12.9981L21.5218 13.6499C21.5229 13.3702 21.5924 13.0951 21.724 12.8484C21.8557 12.6017 22.0457 12.3909 22.2774 12.2343C22.5091 12.0777 22.7756 11.9802 23.0536 11.95C23.3316 11.9199 23.6128 11.9582 23.8727 12.0615C24.1325 12.1648 24.3632 12.33 24.5447 12.5427C24.7262 12.7555 24.8529 13.0094 24.9139 13.2823C24.9749 13.5552 24.9683 13.8389 24.8947 14.1087C24.8211 14.3785 24.6826 14.6262 24.4915 14.8303L24.4911 14.8313ZM25.1661 19.5759C25.1226 19.5761 25.0796 19.5678 25.0393 19.5513C24.9991 19.5349 24.9625 19.5106 24.9316 19.48C24.9007 19.4494 24.8762 19.413 24.8594 19.373C24.8425 19.3329 24.8338 19.2899 24.8336 19.2464C24.8334 19.2029 24.8418 19.1598 24.8582 19.1196C24.8747 19.0794 24.8989 19.0428 24.9295 19.0119C24.9601 18.981 24.9965 18.9565 25.0366 18.9396C25.0767 18.9228 25.1197 18.9141 25.1631 18.9139H25.1661C25.2539 18.9139 25.3381 18.9488 25.4002 19.0108C25.4623 19.0729 25.4971 19.1571 25.4971 19.2449C25.4971 19.3327 25.4623 19.4169 25.4002 19.479C25.3381 19.5411 25.2539 19.5759 25.1661 19.5759ZM21.733 19.5759C21.6452 19.5764 21.5608 19.5419 21.4985 19.4802C21.4361 19.4184 21.4008 19.3344 21.4003 19.2466C21.3999 19.1588 21.4343 19.0744 21.4961 19.012C21.5579 18.9496 21.6419 18.9143 21.7297 18.9139H21.733C21.8208 18.9139 21.905 18.9488 21.9671 19.0108C22.0292 19.0729 22.064 19.1571 22.064 19.2449C22.064 19.3327 22.0292 19.4169 21.9671 19.479C21.905 19.5411 21.8208 19.5759 21.733 19.5759Z" fill="#080808"/>
<path d="M21.7295 19.5775C21.642 19.5775 21.5581 19.5429 21.4961 19.4813C21.4341 19.4196 21.399 19.3359 21.3984 19.2485C21.3981 19.1887 21.4139 19.1299 21.4442 19.0784C21.4745 19.0269 21.5182 18.9846 21.5706 18.9559C21.6231 18.9272 21.6823 18.9133 21.742 18.9155C21.8018 18.9178 21.8598 18.9362 21.9099 18.9688C21.96 19.0013 22.0003 19.0469 22.0267 19.1005C22.053 19.1542 22.0643 19.214 22.0594 19.2736C22.0545 19.3331 22.0335 19.3903 21.9987 19.4389C21.964 19.4875 21.9167 19.5258 21.8619 19.5497C21.8202 19.5682 21.7751 19.5776 21.7295 19.5775Z" fill="#080808"/>
<path d="M24.3287 29H7.16754C6.85838 29.0001 6.56181 28.8775 6.34292 28.6592C6.12403 28.4409 6.0007 28.1446 6 27.8355V10.6713C6.00123 10.3626 6.12483 10.067 6.3437 9.84927C6.56257 9.63157 6.85884 9.50957 7.16754 9.51001H15.7448C15.8326 9.51001 15.9168 9.54489 15.9789 9.60697C16.041 9.66905 16.0759 9.75325 16.0759 9.84104V13.2731C16.0761 13.3384 16.057 13.4024 16.0211 13.4569C15.9851 13.5113 15.9338 13.554 15.8736 13.5794C15.8135 13.6048 15.7472 13.6118 15.683 13.5996C15.6189 13.5874 15.5597 13.5565 15.5131 13.5108C15.2469 13.2533 14.8904 13.1101 14.52 13.1119C14.1401 13.1119 13.7756 13.2629 13.507 13.5316C13.2383 13.8002 13.0873 14.1647 13.0873 14.5446C13.0873 14.9246 13.2383 15.289 13.507 15.5577C13.7756 15.8264 14.1401 15.9773 14.52 15.9773C14.8902 15.9796 15.2466 15.837 15.5131 15.5801C15.5597 15.5344 15.6189 15.5035 15.683 15.4913C15.7472 15.4791 15.8135 15.4861 15.8736 15.5115C15.9338 15.537 15.9851 15.5796 16.0211 15.6341C16.057 15.6886 16.0761 15.7525 16.0759 15.8178V18.9155H18.5553C18.4053 18.5957 18.3384 18.2432 18.3609 17.8907C18.3834 17.5382 18.4945 17.1971 18.684 16.899C18.8735 16.6008 19.1351 16.3553 19.4447 16.1853C19.7543 16.0152 20.1018 15.926 20.455 15.926C20.8083 15.926 21.1558 16.0152 21.4654 16.1853C21.775 16.3553 22.0366 16.6008 22.2261 16.899C22.4155 17.1971 22.5267 17.5382 22.5492 17.8907C22.5717 18.2432 22.5048 18.5957 22.3548 18.9155H25.159C25.2468 18.9155 25.331 18.9504 25.393 19.0125C25.4551 19.0746 25.49 19.1588 25.49 19.2466V27.8355C25.4902 28.1438 25.368 28.4396 25.1503 28.6579C24.9326 28.8763 24.6371 28.9993 24.3287 29ZM7.16754 10.1721C7.03438 10.1715 6.9064 10.2236 6.81165 10.3172C6.7169 10.4108 6.66311 10.5381 6.66206 10.6713V27.8355C6.66267 27.969 6.71622 28.097 6.81097 28.1911C6.90572 28.2853 7.03394 28.3381 7.16754 28.338H24.3287C24.4615 28.3373 24.5886 28.2841 24.6822 28.1899C24.7758 28.0957 24.8282 27.9682 24.8279 27.8355V19.5759H21.7335C21.6687 19.5759 21.6053 19.5568 21.5512 19.5211C21.4972 19.4853 21.4548 19.4345 21.4293 19.3749C21.4039 19.3153 21.3965 19.2495 21.4081 19.1858C21.4196 19.122 21.4497 19.063 21.4945 19.0162C21.6555 18.8465 21.7726 18.64 21.8354 18.4146C21.8983 18.1893 21.905 17.952 21.8549 17.7234C21.8049 17.4949 21.6997 17.2821 21.5484 17.1036C21.3972 16.9252 21.2046 16.7864 20.9873 16.6996C20.7701 16.6127 20.5349 16.5803 20.3023 16.6053C20.0697 16.6303 19.8468 16.7119 19.653 16.8429C19.4592 16.9739 19.3004 17.1504 19.1905 17.3569C19.0807 17.5635 19.023 17.7938 19.0227 18.0277C19.0194 18.3956 19.1623 18.7496 19.4199 19.0122C19.4655 19.0587 19.4963 19.1176 19.5086 19.1815C19.5209 19.2455 19.514 19.3116 19.4889 19.3716C19.4638 19.4317 19.4215 19.483 19.3674 19.5192C19.3133 19.5554 19.2497 19.5747 19.1846 19.575H15.7448C15.657 19.575 15.5728 19.5401 15.5108 19.478C15.4487 19.4159 15.4138 19.3317 15.4138 19.2439V16.4408C15.0946 16.5901 14.7428 16.6564 14.3911 16.6337C14.0394 16.611 13.6992 16.4998 13.4018 16.3107C13.1045 16.1215 12.8597 15.8603 12.6901 15.5514C12.5205 15.2425 12.4316 14.8957 12.4316 14.5433C12.4316 14.1909 12.5205 13.8442 12.6901 13.5352C12.8597 13.2263 13.1045 12.9651 13.4018 12.776C13.6992 12.5868 14.0394 12.4757 14.3911 12.4529C14.7428 12.4302 15.0946 12.4965 15.4138 12.6458V10.1721H7.16754Z" fill="#080808"/>
<path d="M15.747 23.0134C15.6593 23.0134 15.5751 22.9785 15.513 22.9165C15.4509 22.8544 15.416 22.7702 15.416 22.6824V19.2486C15.4158 19.2052 15.4241 19.1621 15.4405 19.1218C15.4569 19.0816 15.4811 19.0449 15.5117 19.014C15.5734 18.9516 15.6574 18.9163 15.7452 18.9158C15.833 18.9153 15.9174 18.9497 15.9798 19.0114C16.0423 19.0732 16.0776 19.1572 16.0781 19.245V22.6807C16.0783 22.7243 16.0699 22.7676 16.0534 22.8079C16.0368 22.8483 16.0125 22.885 15.9817 22.9159C15.9509 22.9468 15.9144 22.9713 15.8741 22.9881C15.8338 23.0048 15.7907 23.0134 15.747 23.0134ZM15.7494 28.9868C15.6616 28.9868 15.5774 28.952 15.5153 28.8899C15.4532 28.8278 15.4183 28.7436 15.4183 28.6558V25.2184C15.4183 25.1306 15.4532 25.0464 15.5153 24.9843C15.5774 24.9223 15.6616 24.8874 15.7494 24.8874C15.8372 24.8874 15.9214 24.9223 15.9834 24.9843C16.0455 25.0464 16.0804 25.1306 16.0804 25.2184V28.6558C16.0804 28.7436 16.0455 28.8278 15.9834 28.8899C15.9214 28.952 15.8372 28.9868 15.7494 28.9868Z" fill="#080808"/>
<path d="M15.7486 19.5759H12.3232C12.2354 19.5759 12.1512 19.541 12.0891 19.4789C12.027 19.4168 11.9921 19.3326 11.9921 19.2448C11.9921 19.1571 12.027 19.0729 12.0891 19.0108C12.1512 18.9487 12.2354 18.9138 12.3232 18.9138H15.7486C15.8364 18.9138 15.9206 18.9487 15.9827 19.0108C16.0448 19.0729 16.0797 19.1571 16.0797 19.2448C16.0797 19.3326 16.0448 19.4168 15.9827 19.4789C15.9206 19.541 15.8364 19.5759 15.7486 19.5759ZM9.77919 19.5779H6.34079C6.253 19.5779 6.1688 19.543 6.10672 19.4809C6.04464 19.4188 6.00977 19.3346 6.00977 19.2468C6.00977 19.159 6.04464 19.0748 6.10672 19.0128C6.1688 18.9507 6.253 18.9158 6.34079 18.9158H9.77919C9.86699 18.9158 9.95119 18.9507 10.0133 19.0128C10.0753 19.0748 10.1102 19.159 10.1102 19.2468C10.1102 19.3346 10.0753 19.4188 10.0133 19.4809C9.95119 19.543 9.86699 19.5779 9.77919 19.5779Z" fill="#080808"/>
<path d="M11.0429 22.5678C10.6315 22.568 10.2291 22.4468 9.88613 22.2195C9.54315 21.9923 9.27475 21.6689 9.1145 21.29C8.95425 20.911 8.90924 20.4932 8.98511 20.0888C9.06097 19.6844 9.25434 19.3113 9.54105 19.0162C9.60247 18.9543 9.68585 18.9191 9.77306 18.9183C9.86027 18.9175 9.94427 18.9512 10.0068 19.012C10.0693 19.0728 10.1054 19.1558 10.107 19.243C10.1087 19.3302 10.0759 19.4145 10.0157 19.4777C9.81981 19.6794 9.68765 19.9344 9.63578 20.2108C9.58391 20.4872 9.61464 20.7728 9.72412 21.0318C9.8336 21.2909 10.017 21.5119 10.2514 21.6674C10.4857 21.8228 10.7607 21.9057 11.0419 21.9058C11.4222 21.9058 11.7868 21.7549 12.0559 21.4863C12.325 21.2177 12.4766 20.8533 12.4773 20.4731C12.4799 20.1022 12.336 19.7453 12.0767 19.48C12.0442 19.4495 12.0182 19.4127 12.0003 19.3718C11.9824 19.331 11.9729 19.287 11.9724 19.2424C11.9719 19.1978 11.9804 19.1536 11.9974 19.1123C12.0145 19.0711 12.0397 19.0338 12.0715 19.0025C12.1033 18.9713 12.1411 18.9468 12.1826 18.9305C12.2242 18.9143 12.2685 18.9065 12.3131 18.9079C12.3577 18.9092 12.4016 18.9195 12.4421 18.9382C12.4825 18.9568 12.5189 18.9835 12.5488 19.0166C12.9302 19.4058 13.1424 19.9298 13.1393 20.4747C13.1379 21.03 12.9165 21.5621 12.5236 21.9544C12.1306 22.3467 11.5982 22.5673 11.0429 22.5678ZM16.976 26.0506C16.432 26.0508 15.9094 25.8387 15.5194 25.4594C15.4868 25.4295 15.4605 25.3935 15.4421 25.3533C15.4237 25.3131 15.4134 25.2697 15.4121 25.2255C15.4107 25.1813 15.4182 25.1373 15.4341 25.0961C15.45 25.0548 15.474 25.0172 15.5047 24.9854C15.5354 24.9536 15.5721 24.9282 15.6128 24.9108C15.6534 24.8935 15.6971 24.8844 15.7413 24.8842C15.7855 24.884 15.8293 24.8926 15.8701 24.9096C15.9109 24.9265 15.9479 24.9515 15.9789 24.983C16.1807 25.1773 16.435 25.3082 16.7104 25.3594C16.9858 25.4105 17.2701 25.3798 17.5282 25.2709C17.7863 25.162 18.0068 24.9798 18.1623 24.7469C18.3178 24.5139 18.4016 24.2404 18.4032 23.9603C18.4048 23.6802 18.3242 23.4058 18.1714 23.1711C18.0185 22.9363 17.8002 22.7516 17.5434 22.6398C17.2865 22.5279 17.0025 22.4939 16.7266 22.5419C16.4506 22.5899 16.1948 22.7178 15.9908 22.9098C15.9455 22.9582 15.8868 22.9918 15.8222 23.0064C15.7576 23.021 15.6901 23.0159 15.6284 22.9918C15.5667 22.9676 15.5137 22.9255 15.4762 22.8708C15.4387 22.8162 15.4185 22.7516 15.4181 22.6854V22.6824C15.4182 22.6379 15.4272 22.594 15.4446 22.5531C15.462 22.5122 15.4874 22.4752 15.5194 22.4444C15.7665 22.2064 16.0681 22.0327 16.3979 21.9384C16.7278 21.8442 17.0756 21.8324 17.4111 21.9039C17.7466 21.9754 18.0594 22.1282 18.322 22.3488C18.5847 22.5694 18.7893 22.851 18.9177 23.1691C19.0462 23.4871 19.0946 23.8318 19.0588 24.173C19.023 24.5141 18.9041 24.8413 18.7124 25.1257C18.5207 25.4102 18.2621 25.6432 17.9594 25.8045C17.6567 25.9658 17.319 26.0503 16.976 26.0506Z" fill="#080808"/>
</g>
<defs>
<clipPath id="clip0_82_7861">
<rect width="23" height="23" fill="white" transform="translate(6 6)"/>
</clipPath>
</defs>
</svg>
