<svg width="18" height="18" viewBox="0 0 18 18" fill="none" xmlns="http://www.w3.org/2000/svg">
<path d="M8.99916 12C8.90046 12.0006 8.80261 11.9817 8.71123 11.9443C8.61985 11.907 8.53674 11.852 8.46666 11.7825L3.96666 7.28252C3.82543 7.14129 3.74609 6.94974 3.74609 6.75002C3.74609 6.55029 3.82543 6.35874 3.96666 6.21752C4.10789 6.07629 4.29944 5.99695 4.49916 5.99695C4.69889 5.99695 4.89043 6.07629 5.03166 6.21752L8.99916 10.1925L12.9667 6.22502C13.1101 6.10215 13.2947 6.03794 13.4835 6.04523C13.6722 6.05252 13.8513 6.13077 13.9848 6.26434C14.1184 6.39792 14.1967 6.57697 14.2039 6.76573C14.2112 6.95448 14.147 7.13904 14.0242 7.28252L9.52416 11.7825C9.38447 11.9211 9.19592 11.9992 8.99916 12Z" fill="#ABABAB"/>
</svg>
