<svg width="20" height="20" viewBox="0 0 20 20" fill="none" xmlns="http://www.w3.org/2000/svg">
<path d="M15.0566 9.9997C14.6572 9.9997 14.3344 10.3233 14.3344 10.7219V16.4999C14.3344 16.8979 14.0108 17.2221 13.6122 17.2221H3.50072C3.10201 17.2221 2.77852 16.8979 2.77852 16.4999V6.38842C2.77852 5.99048 3.10201 5.66622 3.50072 5.66622H9.27874C9.67813 5.66622 10.0009 5.34263 10.0009 4.94402C10.0009 4.5453 9.67813 4.22168 9.27874 4.22168H3.50072C2.30614 4.22168 1.33398 5.19383 1.33398 6.38842V16.4999C1.33398 17.6945 2.30614 18.6667 3.50072 18.6667H13.6122C14.8068 18.6667 15.779 17.6945 15.779 16.4999V10.7219C15.779 10.3225 15.456 9.9997 15.0566 9.9997Z" fill="white"/>
<path d="M8.10484 9.3418C8.05464 9.39223 8.02026 9.45622 8.00592 9.52591L7.49531 12.0799C7.47151 12.1982 7.50906 12.3203 7.59424 12.4063C7.62785 12.4398 7.66774 12.4663 7.71162 12.4844C7.7555 12.5025 7.80251 12.5118 7.84998 12.5117C7.873 12.5117 7.89694 12.5095 7.92074 12.5045L10.4739 11.9939C10.5447 11.9794 10.6089 11.9455 10.6588 11.8949L16.3732 6.18043L13.82 3.6274L8.10484 9.3418ZM18.1383 1.86154C17.4342 1.15732 16.2887 1.15732 15.5851 1.86154L14.5856 2.86105L17.1388 5.41422L18.1383 4.41457C18.4792 4.07443 18.667 3.6208 18.667 3.13836C18.667 2.65592 18.4792 2.20233 18.1383 1.86154Z" fill="white"/>
</svg>
