<svg width="30" height="30" viewBox="0 0 30 30" fill="none" xmlns="http://www.w3.org/2000/svg">
<g clip-path="url(#clip0_258_4942)">
<path d="M22.1296 7.86598C21.8952 7.63164 21.5773 7.5 21.2458 7.5C20.9144 7.5 20.5965 7.63164 20.3621 7.86598L14.9958 13.2322L9.62958 7.86598C9.39383 7.63829 9.07807 7.51229 8.75033 7.51514C8.42258 7.51799 8.10907 7.64945 7.87731 7.88121C7.64555 8.11297 7.51409 8.42649 7.51124 8.75423C7.50839 9.08198 7.63438 9.39773 7.86208 9.63348L13.2283 14.9997L7.86208 20.366C7.74269 20.4813 7.64746 20.6192 7.58195 20.7717C7.51644 20.9242 7.48196 21.0883 7.48052 21.2542C7.47907 21.4202 7.5107 21.5848 7.57355 21.7384C7.6364 21.892 7.72922 22.0316 7.84659 22.149C7.96395 22.2663 8.10352 22.3592 8.25714 22.422C8.41076 22.4849 8.57536 22.5165 8.74133 22.515C8.9073 22.5136 9.07133 22.4791 9.22383 22.4136C9.37634 22.3481 9.51427 22.2529 9.62958 22.1335L14.9958 16.7672L20.3621 22.1335C20.4774 22.2529 20.6153 22.3481 20.7678 22.4136C20.9203 22.4791 21.0844 22.5136 21.2503 22.515C21.4163 22.5165 21.5809 22.4849 21.7345 22.422C21.8881 22.3592 22.0277 22.2663 22.1451 22.149C22.2624 22.0316 22.3553 21.892 22.4181 21.7384C22.481 21.5848 22.5126 21.4202 22.5111 21.2542C22.5097 21.0883 22.4752 20.9242 22.4097 20.7717C22.3442 20.6192 22.249 20.4813 22.1296 20.366L16.7633 14.9997L22.1296 9.63348C22.3639 9.39907 22.4956 9.08119 22.4956 8.74973C22.4956 8.41828 22.3639 8.10039 22.1296 7.86598Z" fill="#FF3434"/>
<path d="M26.25 0H3.75C2.75579 0.00115788 1.80264 0.396618 1.09963 1.09963C0.396618 1.80264 0.00115788 2.75579 0 3.75V26.25C0.00115788 27.2442 0.396618 28.1974 1.09963 28.9004C1.80264 29.6034 2.75579 29.9988 3.75 30H26.25C27.2442 29.9988 28.1974 29.6034 28.9004 28.9004C29.6034 28.1974 29.9988 27.2442 30 26.25V3.75C29.9988 2.75579 29.6034 1.80264 28.9004 1.09963C28.1974 0.396618 27.2442 0.00115788 26.25 0ZM27.5 26.25C27.4997 26.5814 27.3679 26.8992 27.1335 27.1335C26.8992 27.3679 26.5814 27.4997 26.25 27.5H3.75C3.41858 27.4997 3.10083 27.3679 2.86648 27.1335C2.63213 26.8992 2.50033 26.5814 2.5 26.25V3.75C2.50033 3.41858 2.63213 3.10083 2.86648 2.86648C3.10083 2.63213 3.41858 2.50033 3.75 2.5H26.25C26.5814 2.50033 26.8992 2.63213 27.1335 2.86648C27.3679 3.10083 27.4997 3.41858 27.5 3.75V26.25Z" fill="#FF3434"/>
</g>
<defs>
<clipPath id="clip0_258_4942">
<rect width="30" height="30" fill="white"/>
</clipPath>
</defs>
</svg>
