<svg width="55" height="55" viewBox="0 0 55 55" fill="none" xmlns="http://www.w3.org/2000/svg">
<rect width="55" height="55" rx="10" fill="#191F18"/>
<path d="M33.1577 28.5094C33.009 28.5094 32.8664 28.4504 32.7613 28.3452C32.6562 28.2401 32.5971 28.0975 32.5971 27.9489V9.69275C32.5971 9.54408 32.6562 9.40151 32.7613 9.29638C32.8664 9.19126 33.009 9.1322 33.1577 9.1322C33.3063 9.1322 33.4489 9.19126 33.554 9.29638C33.6592 9.40151 33.7182 9.54408 33.7182 9.69275V27.9489C33.7182 28.0975 33.6592 28.2401 33.554 28.3452C33.4489 28.4504 33.3063 28.5094 33.1577 28.5094ZM10.5234 45.8677C10.3748 45.8677 10.2322 45.8087 10.1271 45.7035C10.0219 45.5984 9.96289 45.4558 9.96289 45.3072V29.1961C9.96289 29.1225 9.97739 29.0496 10.0056 28.9816C10.0337 28.9136 10.075 28.8518 10.1271 28.7997C10.1791 28.7477 10.2409 28.7064 10.3089 28.6782C10.3769 28.65 10.4498 28.6356 10.5234 28.6356C10.597 28.6356 10.6699 28.65 10.7379 28.6782C10.806 28.7064 10.8678 28.7477 10.9198 28.7997C10.9719 28.8518 11.0131 28.9136 11.0413 28.9816C11.0695 29.0496 11.084 29.1225 11.084 29.1961V45.3072C11.084 45.4558 11.0249 45.5984 10.9198 45.7035C10.8147 45.8087 10.6721 45.8677 10.5234 45.8677ZM44.4748 38.225C44.3261 38.225 44.1836 38.1659 44.0784 38.0608C43.9733 37.9557 43.9143 37.8131 43.9143 37.6644V20.7278C43.9143 20.5791 43.9733 20.4365 44.0784 20.3314C44.1836 20.2263 44.3261 20.1672 44.4748 20.1672C44.6235 20.1672 44.766 20.2263 44.8712 20.3314C44.9763 20.4365 45.0354 20.5791 45.0354 20.7278V37.6644C45.0354 37.8131 44.9763 37.9557 44.8712 38.0608C44.766 38.1659 44.6235 38.225 44.4748 38.225ZM16.182 39.3966C16.0333 39.3966 15.8908 39.3376 15.7856 39.2324C15.6805 39.1273 15.6215 38.9847 15.6215 38.8361V27.4071C15.6215 27.2584 15.6805 27.1158 15.7856 27.0107C15.8908 26.9056 16.0333 26.8465 16.182 26.8465C16.3307 26.8465 16.4732 26.9056 16.5784 27.0107C16.6835 27.1158 16.7425 27.2584 16.7425 27.4071V38.8361C16.7425 38.9848 16.6835 39.1274 16.5783 39.2325C16.4732 39.3376 16.3307 39.3966 16.182 39.3966ZM21.8406 44.2412C21.6919 44.2412 21.5493 44.1821 21.4442 44.077C21.3391 43.9719 21.28 43.8293 21.28 43.6806V17.9697C21.28 17.821 21.3391 17.6785 21.4442 17.5733C21.5493 17.4682 21.6919 17.4092 21.8406 17.4092C21.9892 17.4092 22.1318 17.4682 22.2369 17.5733C22.342 17.6785 22.4011 17.821 22.4011 17.9697V43.6805C22.4011 43.7542 22.3866 43.8271 22.3585 43.8951C22.3303 43.9631 22.289 44.0249 22.237 44.077C22.1849 44.129 22.1231 44.1703 22.0551 44.1985C21.9871 44.2267 21.9142 44.2412 21.8406 44.2412ZM38.8162 32.281C38.6676 32.281 38.525 32.222 38.4199 32.1168C38.3147 32.0117 38.2557 31.8691 38.2557 31.7205V13.4643C38.2557 13.3157 38.3147 13.1731 38.4199 13.068C38.525 12.9629 38.6676 12.9038 38.8162 12.9038C38.9649 12.9038 39.1075 12.9629 39.2126 13.068C39.3177 13.1731 39.3768 13.3157 39.3768 13.4643V31.7205C39.3768 31.8691 39.3177 32.0117 39.2126 32.1168C39.1075 32.222 38.9649 32.281 38.8162 32.281ZM27.4991 33.6182C27.3505 33.6182 27.2079 33.5591 27.1028 33.454C26.9976 33.3489 26.9386 33.2063 26.9386 33.0576V17.2359C26.9386 17.0873 26.9976 16.9447 27.1028 16.8396C27.2079 16.7345 27.3505 16.6754 27.4991 16.6754C27.6478 16.6754 27.7904 16.7345 27.8955 16.8396C28.0006 16.9447 28.0597 17.0873 28.0597 17.2359V33.0576C28.0597 33.2063 28.0006 33.3489 27.8955 33.454C27.7904 33.5591 27.6478 33.6182 27.4991 33.6182Z" fill="white"/>
<path d="M34.514 23.9754H31.8027C31.6965 23.9754 31.5947 23.9332 31.5196 23.8581C31.4445 23.783 31.4023 23.6812 31.4023 23.575V12.4258C31.4023 12.3196 31.4445 12.2178 31.5196 12.1427C31.5947 12.0676 31.6965 12.0254 31.8027 12.0254H34.514C34.6202 12.0254 34.7221 12.0676 34.7971 12.1427C34.8722 12.2178 34.9144 12.3196 34.9144 12.4258V23.5749C34.9144 23.6275 34.9041 23.6796 34.884 23.7281C34.8638 23.7767 34.8343 23.8209 34.7972 23.8581C34.76 23.8953 34.7158 23.9248 34.6673 23.9449C34.6187 23.965 34.5666 23.9754 34.514 23.9754Z" fill="#95E362"/>
<path d="M34.5138 23.9754H33.1582V12.0254H34.5138C34.62 12.0254 34.7219 12.0676 34.797 12.1427C34.8721 12.2178 34.9142 12.3196 34.9142 12.4258V23.5749C34.9142 23.6275 34.9039 23.6796 34.8838 23.7281C34.8637 23.7767 34.8342 23.8209 34.797 23.8581C34.7598 23.8953 34.7157 23.9248 34.6671 23.9449C34.6185 23.965 34.5664 23.9754 34.5138 23.9754Z" fill="#6EB93D"/>
<path d="M11.8793 41.3335H9.16797C9.06178 41.3335 8.95994 41.2913 8.88485 41.2162C8.80976 41.1412 8.76758 41.0393 8.76758 40.9331V33.522C8.76758 33.4158 8.80976 33.3139 8.88485 33.2389C8.95994 33.1638 9.06178 33.1216 9.16797 33.1216H11.8793C11.9854 33.1216 12.0873 33.1638 12.1624 33.2389C12.2375 33.3139 12.2796 33.4158 12.2796 33.522V40.9331C12.2796 41.0393 12.2375 41.1412 12.1624 41.2162C12.0873 41.2913 11.9854 41.3335 11.8793 41.3335Z" fill="#95E362"/>
<path d="M11.8791 41.3335H10.5234V33.1216H11.8791C11.9853 33.1216 12.0871 33.1638 12.1622 33.2389C12.2373 33.3139 12.2795 33.4158 12.2795 33.522V40.9331C12.2795 41.0393 12.2373 41.1412 12.1622 41.2162C12.0871 41.2913 11.9853 41.3335 11.8791 41.3335Z" fill="#6EB93D"/>
<path d="M45.8304 32.1593H43.1191C43.013 32.1593 42.9111 32.1171 42.836 32.0421C42.7609 31.967 42.7188 31.8651 42.7188 31.7589V23.3527C42.7188 23.2465 42.7609 23.1446 42.836 23.0695C42.9111 22.9945 43.013 22.9523 43.1191 22.9523H45.8304C45.9366 22.9523 46.0385 22.9945 46.1135 23.0695C46.1886 23.1446 46.2308 23.2465 46.2308 23.3527V31.7589C46.2308 31.8651 46.1886 31.967 46.1135 32.0421C46.0385 32.1171 45.9366 32.1593 45.8304 32.1593Z" fill="#524BFB"/>
<path d="M45.8303 32.1593H44.4746V22.9523H45.8303C45.9364 22.9523 46.0383 22.9945 46.1134 23.0695C46.1885 23.1446 46.2306 23.2465 46.2306 23.3527V31.7589C46.2306 31.8651 46.1885 31.967 46.1134 32.0421C46.0383 32.1171 45.9364 32.1593 45.8303 32.1593Z" fill="#342EC8"/>
<path d="M17.5375 36.5462H14.8262C14.72 36.5462 14.6181 36.5041 14.5431 36.429C14.468 36.3539 14.4258 36.252 14.4258 36.1459V32.1659C14.4258 32.0597 14.468 31.9579 14.5431 31.8828C14.6181 31.8077 14.72 31.7655 14.8262 31.7655H17.5375C17.6436 31.7655 17.7455 31.8077 17.8206 31.8828C17.8957 31.9579 17.9378 32.0597 17.9378 32.1659V36.1459C17.9378 36.252 17.8957 36.3539 17.8206 36.429C17.7455 36.5041 17.6436 36.5462 17.5375 36.5462Z" fill="#95E362"/>
<path d="M17.5373 36.5462H16.1816V31.7655H17.5373C17.6435 31.7655 17.7453 31.8077 17.8204 31.8828C17.8955 31.9579 17.9377 32.0597 17.9377 32.1659V36.1459C17.9377 36.252 17.8955 36.3539 17.8204 36.429C17.7453 36.5041 17.6435 36.5462 17.5373 36.5462Z" fill="#6EB93D"/>
<path d="M23.1957 41.5543H20.4844C20.3782 41.5543 20.2763 41.5121 20.2013 41.437C20.1262 41.3619 20.084 41.2601 20.084 41.1539V25.1819C20.084 25.0757 20.1262 24.9739 20.2013 24.8988C20.2763 24.8237 20.3782 24.7815 20.4844 24.7815H23.1957C23.3019 24.7815 23.4037 24.8237 23.4788 24.8988C23.5539 24.9739 23.5961 25.0757 23.5961 25.1819V41.1538C23.5961 41.2064 23.5857 41.2584 23.5656 41.307C23.5455 41.3556 23.516 41.3998 23.4788 41.437C23.4416 41.4741 23.3975 41.5036 23.3489 41.5238C23.3003 41.5439 23.2482 41.5543 23.1957 41.5543Z" fill="#95E362"/>
<path d="M23.1955 41.5543H21.8398V24.7815H23.1955C23.3017 24.7815 23.4035 24.8237 23.4786 24.8988C23.5537 24.9739 23.5959 25.0757 23.5959 25.1819V41.1538C23.5959 41.2064 23.5855 41.2584 23.5654 41.307C23.5453 41.3556 23.5158 41.3998 23.4786 41.437C23.4415 41.4741 23.3973 41.5036 23.3487 41.5238C23.3001 41.5439 23.2481 41.5543 23.1955 41.5543Z" fill="#6EB93D"/>
<path d="M40.1722 25.9901H37.4609C37.3547 25.9901 37.2529 25.9479 37.1778 25.8729C37.1027 25.7978 37.0605 25.6959 37.0605 25.5897V19.5951C37.0605 19.4889 37.1027 19.3871 37.1778 19.312C37.2529 19.2369 37.3547 19.1947 37.4609 19.1947H40.1722C40.2784 19.1947 40.3803 19.2369 40.4553 19.312C40.5304 19.3871 40.5726 19.4889 40.5726 19.5951V25.5897C40.5726 25.6959 40.5304 25.7978 40.4553 25.8729C40.3803 25.9479 40.2784 25.9901 40.1722 25.9901Z" fill="#524BFB"/>
<path d="M40.1721 25.9901H38.8164V19.1947H40.1721C40.2782 19.1947 40.3801 19.2369 40.4552 19.312C40.5303 19.3871 40.5724 19.4889 40.5724 19.5951V25.5897C40.5724 25.6959 40.5303 25.7978 40.4552 25.8729C40.3801 25.9479 40.2782 25.9901 40.1721 25.9901Z" fill="#342EC8"/>
<path d="M28.8558 30.2366H26.1445C26.0383 30.2366 25.9365 30.1944 25.8614 30.1193C25.7863 30.0442 25.7441 29.9424 25.7441 29.8362V22.5093C25.7441 22.4031 25.7863 22.3012 25.8614 22.2262C25.9365 22.1511 26.0383 22.1089 26.1445 22.1089H28.8558C28.962 22.1089 29.0638 22.1511 29.1389 22.2262C29.214 22.3012 29.2562 22.4031 29.2562 22.5093V29.8362C29.2562 29.9424 29.214 30.0442 29.1389 30.1193C29.0638 30.1944 28.962 30.2366 28.8558 30.2366Z" fill="#95E362"/>
<path d="M28.8556 30.2366H27.5V22.1089H28.8556C28.9618 22.1089 29.0637 22.1511 29.1388 22.2262C29.2138 22.3012 29.256 22.4031 29.256 22.5093V29.8362C29.256 29.9424 29.2138 30.0442 29.1388 30.1193C29.0637 30.1944 28.9618 30.2366 28.8556 30.2366Z" fill="#6EB93D"/>
</svg>
