<svg width="56" height="56" viewBox="0 0 56 56" fill="none" xmlns="http://www.w3.org/2000/svg">
<rect x="0.5" y="0.5" width="55" height="55" rx="10" fill="#191F18"/>
<path d="M16.7273 41.6388C16.5349 41.6388 16.3504 41.5624 16.2144 41.4264C16.0784 41.2903 16.002 41.1058 16.002 40.9135V34.8207C16.002 34.6283 16.0784 34.4438 16.2144 34.3078C16.3504 34.1718 16.5349 34.0954 16.7273 34.0954C16.9196 34.0954 17.1041 34.1718 17.2401 34.3078C17.3762 34.4438 17.4526 34.6283 17.4526 34.8207V40.9135C17.4526 41.1058 17.3762 41.2903 17.2401 41.4264C17.1041 41.5624 16.9196 41.6388 16.7273 41.6388ZM16.7273 23.1684C16.5349 23.1684 16.3504 23.092 16.2144 22.956C16.0784 22.82 16.002 22.6355 16.002 22.4431V16.3503C16.002 16.1579 16.0784 15.9735 16.2144 15.8374C16.3504 15.7014 16.5349 15.625 16.7273 15.625C16.9196 15.625 17.1041 15.7014 17.2401 15.8374C17.3762 15.9735 17.4526 16.1579 17.4526 16.3503V22.4431C17.4526 22.6355 17.3762 22.82 17.2401 22.956C17.1041 23.092 16.9196 23.1684 16.7273 23.1684ZM28.4196 41.6388C28.2272 41.6388 28.0427 41.5624 27.9067 41.4264C27.7707 41.2903 27.6943 41.1058 27.6943 40.9135V37.9152C27.6943 37.7228 27.7707 37.5384 27.9067 37.4023C28.0427 37.2663 28.2272 37.1899 28.4196 37.1899C28.6119 37.1899 28.7964 37.2663 28.9325 37.4023C29.0685 37.5384 29.1449 37.7228 29.1449 37.9152V40.9135C29.1449 41.1058 29.0684 41.2903 28.9324 41.4263C28.7964 41.5623 28.6119 41.6388 28.4196 41.6388ZM28.4196 26.2629C28.2272 26.2629 28.0427 26.1865 27.9067 26.0505C27.7707 25.9145 27.6943 25.73 27.6943 25.5376V16.3504C27.6943 16.158 27.7707 15.9735 27.9067 15.8375C28.0427 15.7015 28.2272 15.6251 28.4196 15.6251C28.6119 15.6251 28.7964 15.7015 28.9325 15.8375C29.0685 15.9735 29.1449 16.158 29.1449 16.3504V25.5377C29.1449 25.7301 29.0684 25.9145 28.9324 26.0505C28.7964 26.1865 28.6119 26.2629 28.4196 26.2629ZM40.1118 41.6388C39.9194 41.6388 39.735 41.5624 39.5989 41.4264C39.4629 41.2903 39.3865 41.1058 39.3865 40.9135V32.1131C39.3865 31.7124 39.7112 31.3877 40.1118 31.3877C40.5124 31.3877 40.8371 31.7124 40.8371 32.1131V40.9136C40.8371 41.1059 40.7607 41.2904 40.6246 41.4264C40.4886 41.5624 40.3042 41.6388 40.1118 41.6388ZM40.1118 20.4608C39.9194 20.4608 39.735 20.3844 39.5989 20.2484C39.4629 20.1123 39.3865 19.9278 39.3865 19.7355V16.3504C39.3865 15.9498 39.7112 15.6251 40.1118 15.6251C40.5124 15.6251 40.8371 15.9498 40.8371 16.3504V19.7355C40.8371 19.9278 40.7607 20.1123 40.6247 20.2484C40.4887 20.3844 40.3042 20.4608 40.1118 20.4608Z" fill="white"/>
<path d="M20.0179 21.7179H13.6003C13.4079 21.7179 13.2235 21.7943 13.0874 21.9303C12.9514 22.0664 12.875 22.2508 12.875 22.4432V34.8208C12.875 35.0131 12.9514 35.1976 13.0874 35.3337C13.2235 35.4697 13.4079 35.5461 13.6003 35.5461H20.018C20.2103 35.5461 20.3948 35.4697 20.5308 35.3337C20.6668 35.1976 20.7433 35.0131 20.7433 34.8208V22.4432C20.7432 22.2508 20.6668 22.0664 20.5307 21.9304C20.3947 21.7943 20.2102 21.7179 20.0179 21.7179Z" fill="#6EB93D"/>
<path d="M20.0163 21.7178H17.1152V35.5459H20.0163C20.2087 35.5459 20.3932 35.4695 20.5292 35.3335C20.6652 35.1974 20.7416 35.0129 20.7416 34.8206V22.443C20.7416 22.2506 20.6652 22.0662 20.5292 21.9302C20.3931 21.7942 20.2087 21.7178 20.0163 21.7178Z" fill="#95E362"/>
<path d="M31.7113 24.8124H25.2937C25.1013 24.8124 24.9168 24.8888 24.7808 25.0248C24.6448 25.1608 24.5684 25.3453 24.5684 25.5377V37.9153C24.5684 38.1076 24.6448 38.2921 24.7808 38.4281C24.9168 38.5642 25.1013 38.6406 25.2937 38.6406H31.7113C31.9037 38.6406 32.0882 38.5642 32.2242 38.4281C32.3602 38.2921 32.4366 38.1076 32.4366 37.9153V25.5377C32.4366 25.3453 32.3602 25.1609 32.2242 25.0248C32.0881 24.8888 31.9037 24.8124 31.7113 24.8124Z" fill="#342EC8"/>
<path d="M31.7097 24.8124H28.8086V38.6405H31.7097C31.902 38.6405 32.0865 38.5641 32.2225 38.4281C32.3586 38.292 32.435 38.1075 32.435 37.9152V25.5376C32.435 25.3453 32.3585 25.1608 32.2225 25.0248C32.0865 24.8888 31.902 24.8124 31.7097 24.8124Z" fill="#524BFB"/>
<path d="M43.4047 19.0103H36.987C36.7947 19.0103 36.6102 19.0867 36.4742 19.2227C36.3381 19.3587 36.2617 19.5432 36.2617 19.7356V32.1131C36.2617 32.3055 36.3381 32.49 36.4742 32.626C36.6102 32.762 36.7947 32.8385 36.987 32.8385H43.4047C43.597 32.8385 43.7815 32.762 43.9175 32.626C44.0536 32.49 44.13 32.3055 44.13 32.1131V19.7356C44.13 19.5432 44.0536 19.3587 43.9175 19.2227C43.7815 19.0867 43.597 19.0103 43.4047 19.0103Z" fill="#6EB93D"/>
<path d="M43.403 19.0103H40.502V32.8384H43.403C43.5954 32.8384 43.7799 32.762 43.9159 32.6259C44.0519 32.4899 44.1283 32.3054 44.1283 32.1131V19.7355C44.1283 19.6402 44.1096 19.5459 44.0731 19.4579C44.0367 19.3699 43.9833 19.29 43.9159 19.2226C43.8485 19.1553 43.7686 19.1019 43.6806 19.0654C43.5926 19.029 43.4983 19.0102 43.403 19.0103Z" fill="#95E362"/>
</svg>
