<svg width="20" height="20" viewBox="0 0 20 20" fill="none" xmlns="http://www.w3.org/2000/svg">
<rect opacity="0.05" width="20" height="20" rx="10" fill="#95E362"/>
<path d="M9.99978 15.5895C9.58021 15.5895 9.24023 15.2495 9.24023 14.8299V5.1697C9.24023 4.75013 9.58021 4.41016 9.99978 4.41016C10.4194 4.41016 10.7593 4.75013 10.7593 5.1697V14.8299C10.7593 15.2495 10.4194 15.5895 9.99978 15.5895Z" fill="#95E362"/>
<path d="M14.8299 10.7593H5.1697C4.75013 10.7593 4.41016 10.4194 4.41016 9.99978C4.41016 9.58021 4.75013 9.24023 5.1697 9.24023H14.8299C15.2495 9.24023 15.5895 9.58021 15.5895 9.99978C15.5895 10.4194 15.2495 10.7593 14.8299 10.7593Z" fill="#95E362"/>
</svg>
