<svg width="35" height="35" viewBox="0 0 35 35" fill="none" xmlns="http://www.w3.org/2000/svg">
<rect width="35" height="35" rx="5" fill="#95E362"/>
<path d="M18.208 23.3293L18.208 23.3294L13.4573 26.4961C13.3945 26.5381 13.3214 26.5623 13.2459 26.566C13.1704 26.5697 13.0953 26.5529 13.0286 26.5172C12.962 26.4816 12.9062 26.4285 12.8674 26.3636L12.9961 26.2866L12.8674 26.3636C12.8286 26.2988 12.8081 26.2246 12.8082 26.149M18.208 23.3293L12.9582 23.8725C12.9582 23.66 12.8737 23.4561 12.7234 23.3057C12.573 23.1554 12.3692 23.0709 12.1566 23.0709M18.208 23.3293C18.315 23.258 18.4408 23.2199 18.5694 23.2199H22.8394C23.4665 23.263 24.0956 23.1714 24.6845 22.9512C25.2749 22.7304 25.8112 22.3855 26.2569 21.9398C26.7027 21.494 27.0476 20.9578 27.2684 20.3673C27.4885 19.7785 27.5801 19.1494 27.537 18.5222V12.1198C27.5801 11.4927 27.4885 10.8636 27.2684 10.2748C27.0476 9.6843 26.7027 9.14807 26.2569 8.70232C25.8112 8.25656 25.2749 7.91164 24.6845 7.69087C24.0956 7.47071 23.4665 7.37911 22.8394 7.42219H12.1617C11.5345 7.37909 10.9053 7.47072 10.3164 7.69094C9.72586 7.91178 9.18958 8.25679 8.74381 8.70268C8.29803 9.14856 7.95314 9.68492 7.73244 10.2755C7.51236 10.8645 7.42088 11.4937 7.46413 12.1209V18.5233M18.208 23.3293L7.46413 18.5233M12.8082 26.149L12.9582 26.1491H12.8082V26.149ZM12.8082 26.149V23.8725C12.8082 23.6997 12.7395 23.534 12.6173 23.4118C12.4963 23.2908 12.3325 23.2223 12.1615 23.221M12.1615 23.221C12.1633 23.2208 12.1652 23.2207 12.167 23.2206L12.1566 23.0709M12.1615 23.221C11.5344 23.264 10.9054 23.1724 10.3167 22.9523C9.72623 22.7315 9.19001 22.3866 8.74425 21.9408C8.29849 21.4951 7.95358 20.9588 7.7328 20.3684C7.51264 19.7795 7.42104 19.1504 7.46413 18.5233M12.1615 23.221C12.1598 23.221 12.1582 23.2209 12.1566 23.2209V23.0709M12.1566 23.0709L7.46413 18.5233M22.8446 6.11899V6.11924L22.8533 6.11873C23.6516 6.07244 24.4508 6.1956 25.1981 6.48011C25.9455 6.76462 26.6242 7.20405 27.1897 7.76952C27.7552 8.33499 28.1946 9.01371 28.4791 9.76108C28.7636 10.5085 28.8868 11.3076 28.8405 12.1059L28.8402 12.1059V12.1146V18.5275H28.84L28.8405 18.5361C28.8868 19.3345 28.7636 20.1336 28.4791 20.881C28.1946 21.6284 27.7552 22.3071 27.1897 22.8726C26.6242 23.438 25.9455 23.8775 25.1981 24.162C24.4508 24.4465 23.6516 24.5696 22.8533 24.5233L22.8533 24.5231H22.8446H18.812H18.7666L18.7288 24.5483L14.1789 27.5805L14.1788 27.5805C13.9198 27.7534 13.6187 27.8527 13.3077 27.8678C12.9967 27.8829 12.6874 27.8133 12.4129 27.6663C12.1383 27.5194 11.9089 27.3006 11.749 27.0334C11.5891 26.7662 11.5047 26.4606 11.5049 26.1492V26.1491V24.6325V24.4928L11.3656 24.4828C9.88956 24.3776 8.51474 23.6939 7.54006 22.5804C6.56538 21.4669 6.06964 20.0137 6.16063 18.5367L6.16092 18.5367V18.5275V12.1146H6.16117L6.16067 12.1059C6.11438 11.3076 6.23753 10.5085 6.52204 9.76108C6.80655 9.01371 7.24598 8.33499 7.81145 7.76952C8.37692 7.20405 9.05564 6.76462 9.80302 6.48011C10.5504 6.1956 11.3495 6.07244 12.1479 6.11873L12.1479 6.11899H12.1566H22.8446ZM11.6203 27.1104C11.7941 27.401 12.0436 27.6388 12.3421 27.7986L12.1566 5.96899C11.3371 5.92147 10.5168 6.04788 9.74965 6.33992C8.9825 6.63196 8.28582 7.08302 7.70538 7.66345C7.12495 8.24389 6.67389 8.94057 6.38186 9.70772C6.08982 10.4749 5.9634 11.2951 6.01092 12.1146V18.5275C5.9175 20.0439 6.42647 21.536 7.42719 22.6792C8.42791 23.8224 9.83946 24.5244 11.3549 24.6325V26.1491C11.3547 26.4877 11.4464 26.8199 11.6203 27.1104ZM18.7719 15.2057L18.7717 15.2053L18.7626 15.2115C18.552 15.3529 18.3975 15.4804 18.2968 15.6202C18.1913 15.7667 18.1511 15.918 18.1511 16.0916V16.3129C18.1511 16.4857 18.0825 16.6514 17.9603 16.7736C17.8381 16.8958 17.6723 16.9645 17.4995 16.9645C17.3267 16.9645 17.161 16.8958 17.0388 16.7736C16.9166 16.6514 16.8479 16.4857 16.8479 16.3129V16.0937C16.8591 15.6944 16.9732 15.3047 17.179 14.9623C17.3851 14.6193 17.6764 14.3353 18.0245 14.138L18.0248 14.1384L18.0347 14.1317C18.2354 13.9957 18.3839 13.8731 18.4809 13.7387C18.5828 13.5974 18.6221 13.4515 18.6221 13.2839H18.6223L18.622 13.2769C18.6086 12.9886 18.4847 12.7165 18.276 12.5172C18.0673 12.3178 17.7898 12.2065 17.5012 12.2063C17.2125 12.2062 16.9349 12.3172 16.726 12.5163C16.5171 12.7155 16.3929 12.9874 16.3792 13.2757L16.379 13.2757V13.2828C16.379 13.4556 16.3104 13.6214 16.1882 13.7436C16.066 13.8658 15.9002 13.9344 15.7274 13.9344C15.5546 13.9344 15.3889 13.8658 15.2667 13.7436C15.145 13.6219 15.0764 13.457 15.0758 13.2849C15.0946 12.6547 15.3579 12.0566 15.8102 11.6172C16.2629 11.1773 16.8693 10.9312 17.5006 10.9312C18.1319 10.9312 18.7383 11.1773 19.191 11.6172C19.6438 12.0571 19.9072 12.6561 19.9254 13.2871L19.9258 13.3007C19.9117 13.6866 19.8002 14.0627 19.6016 14.394C19.3993 14.7314 19.1136 15.0109 18.7719 15.2057ZM18.1522 18.9721L18.1522 18.9723C18.1523 19.0577 18.1356 19.1423 18.103 19.2213C18.0704 19.3003 18.0226 19.372 17.9623 19.4325C17.9019 19.493 17.8303 19.541 17.7514 19.5738C17.6725 19.6066 17.5879 19.6236 17.5025 19.6237H17.4988C17.37 19.6233 17.2442 19.5848 17.1373 19.513C17.0304 19.4412 16.9471 19.3393 16.8981 19.2202C16.849 19.1011 16.8364 18.9702 16.8617 18.8439C16.887 18.7176 16.9492 18.6017 17.0404 18.5107C17.1316 18.4198 17.2477 18.3579 17.3741 18.3329C17.5004 18.3079 17.6314 18.3209 17.7503 18.3702C17.8693 18.4196 17.971 18.5031 18.0425 18.6102C18.114 18.7174 18.1522 18.8433 18.1522 18.9721Z" fill="#080808" stroke="#95E362" stroke-width="0.3"/>
</svg>
