<svg width="18" height="19" viewBox="0 0 18 19" fill="none" xmlns="http://www.w3.org/2000/svg">
<path fill-rule="evenodd" clip-rule="evenodd" d="M7.36761 2.45837C7.80415 2.15977 8.32071 2 8.84961 2C9.37851 2 9.89507 2.15977 10.3316 2.45837L15.2066 5.79437C15.5588 6.0353 15.847 6.35847 16.0462 6.7359C16.2454 7.11332 16.3495 7.53361 16.3496 7.96037V14.2739C16.3496 14.9701 16.073 15.6377 15.5808 16.13C15.0885 16.6223 14.4208 16.8989 13.7246 16.8989H3.97461C3.27842 16.8989 2.61074 16.6223 2.11845 16.13C1.62617 15.6377 1.34961 14.9701 1.34961 14.2739V7.96037C1.34971 7.53361 1.45386 7.11332 1.65303 6.7359C1.85219 6.35847 2.14038 6.0353 2.49261 5.79437L7.36761 2.45837ZM6.97461 13.5239C6.87515 13.5239 6.77977 13.5634 6.70944 13.6337C6.63912 13.704 6.59961 13.7994 6.59961 13.8989C6.59961 13.9983 6.63912 14.0937 6.70944 14.164C6.77977 14.2344 6.87515 14.2739 6.97461 14.2739H10.7246C10.8241 14.2739 10.9194 14.2344 10.9898 14.164C11.0601 14.0937 11.0996 13.9983 11.0996 13.8989C11.0996 13.7994 11.0601 13.704 10.9898 13.6337C10.9194 13.5634 10.8241 13.5239 10.7246 13.5239H6.97461Z" fill="url(#paint0_linear_82_1473)"/>
<defs>
<linearGradient id="paint0_linear_82_1473" x1="8.84961" y1="2" x2="8.84961" y2="16.8989" gradientUnits="userSpaceOnUse">
<stop stop-color="#95E362"/>
<stop offset="1" stop-color="#D1F560"/>
</linearGradient>
</defs>
</svg>
