<svg width="18" height="19" viewBox="0 0 18 19" fill="none" xmlns="http://www.w3.org/2000/svg">
<path d="M6.97461 13.6527C6.84707 13.6527 6.72476 13.7033 6.63457 13.7935C6.54439 13.8837 6.49373 14.006 6.49373 14.1335C6.49373 14.2611 6.54439 14.3834 6.63457 14.4736C6.72476 14.5638 6.84707 14.6144 6.97461 14.6144H10.7246C10.8521 14.6144 10.9745 14.5638 11.0646 14.4736C11.1548 14.3834 11.2055 14.2611 11.2055 14.1335C11.2055 14.006 11.1548 13.8837 11.0646 13.7935C10.9745 13.7033 10.8521 13.6527 10.7246 13.6527H6.97461Z" fill="#434343" stroke="#434343" stroke-width="0.211765"/>
<path d="M2.28225 6.33073L2.28224 6.33073C1.9585 6.58636 1.69688 6.91201 1.51701 7.28323C1.33715 7.65444 1.24371 8.06158 1.24373 8.47408V14.5086C1.24373 15.2329 1.53144 15.9275 2.04358 16.4396C2.55572 16.9517 3.25033 17.2395 3.97461 17.2395H13.7246C14.4489 17.2395 15.1435 16.9517 15.6556 16.4396C16.1678 15.9275 16.4555 15.2329 16.4555 14.5086V8.47408C16.4555 8.06158 16.3621 7.65444 16.1822 7.28323C16.0023 6.91201 15.7407 6.58636 15.417 6.33073L15.3514 6.41383L15.417 6.33073L10.542 2.48173C10.06 2.10113 9.46376 1.89412 8.84961 1.89412C8.23546 1.89412 7.63925 2.10113 7.15725 2.48173C7.15725 2.48173 7.15724 2.48173 7.15724 2.48173L2.28225 6.33073ZM14.8207 7.08568L14.8208 7.08569C15.0305 7.25126 15.2 7.46219 15.3166 7.70266C15.4331 7.94312 15.4937 8.20687 15.4937 8.47409V14.5086C15.4937 14.9778 15.3073 15.4278 14.9756 15.7595C14.6438 16.0913 14.1938 16.2777 13.7246 16.2777H3.97461C3.50541 16.2777 3.05543 16.0913 2.72365 15.7595C2.39188 15.4278 2.20549 14.9778 2.20549 14.5086V8.47408V8.47406C2.20544 8.20689 2.2659 7.94318 2.38233 7.70272C2.49876 7.46226 2.66814 7.2513 2.87776 7.08565L7.75346 3.23669C8.06568 2.99023 8.45184 2.85618 8.84961 2.85618C9.24738 2.85618 9.63353 2.99023 9.94575 3.23668C9.94575 3.23668 9.94575 3.23668 9.94576 3.23669L14.8207 7.08568Z" fill="#434343" stroke="#434343" stroke-width="0.211765"/>
</svg>
