<svg width="20" height="20" viewBox="0 0 20 20" fill="none" xmlns="http://www.w3.org/2000/svg">
<path d="M10.6211 9.16602C10.6211 9.00026 10.5552 8.84128 10.438 8.72407C10.3208 8.60686 10.1619 8.54102 9.99609 8.54102C9.83033 8.54102 9.67136 8.60686 9.55415 8.72407C9.43694 8.84128 9.37109 9.00026 9.37109 9.16602V14.166C9.37109 14.3318 9.43694 14.4907 9.55415 14.608C9.67136 14.7252 9.83033 14.791 9.99609 14.791C10.1619 14.791 10.3208 14.7252 10.438 14.608C10.5552 14.4907 10.6211 14.3318 10.6211 14.166V9.16602Z" fill="#95E362"/>
<path fill-rule="evenodd" clip-rule="evenodd" d="M9.9974 1.04102C5.0499 1.04102 1.03906 5.05185 1.03906 9.99935C1.03906 14.9468 5.0499 18.9577 9.9974 18.9577C14.9449 18.9577 18.9557 14.9468 18.9557 9.99935C18.9557 5.05185 14.9449 1.04102 9.9974 1.04102ZM2.28906 9.99935C2.28906 7.95497 3.10119 5.99433 4.54678 4.54873C5.99237 3.10314 7.95302 2.29102 9.9974 2.29102C12.0418 2.29102 14.0024 3.10314 15.448 4.54873C16.8936 5.99433 17.7057 7.95497 17.7057 9.99935C17.7057 12.0437 16.8936 14.0044 15.448 15.45C14.0024 16.8956 12.0418 17.7077 9.9974 17.7077C7.95302 17.7077 5.99237 16.8956 4.54678 15.45C3.10119 14.0044 2.28906 12.0437 2.28906 9.99935Z" fill="#95E362"/>
<path d="M10.8307 6.66585C10.8307 6.88687 10.7429 7.09883 10.5867 7.25511C10.4304 7.41139 10.2184 7.49919 9.9974 7.49919C9.77638 7.49919 9.56442 7.41139 9.40814 7.25511C9.25186 7.09883 9.16406 6.88687 9.16406 6.66585C9.16406 6.44484 9.25186 6.23288 9.40814 6.0766C9.56442 5.92032 9.77638 5.83252 9.9974 5.83252C10.2184 5.83252 10.4304 5.92032 10.5867 6.0766C10.7429 6.23288 10.8307 6.44484 10.8307 6.66585Z" fill="#95E362"/>
</svg>
