<svg width="35" height="35" viewBox="0 0 35 35" fill="none" xmlns="http://www.w3.org/2000/svg">
<rect width="35" height="35" rx="5" fill="#95E362"/>
<g clip-path="url(#clip0_82_7811)">
<path d="M26.5357 12.1607V8.46429H22.8393C21.2116 8.46429 21.2088 6 22.8393 6H26.9793C27.515 6.00054 28.0287 6.21361 28.4075 6.59245C28.7864 6.97129 28.9995 7.48495 29 8.02071V12.1607C29 13.7888 26.5357 13.7908 26.5357 12.1607ZM6 12.1607V8.02071C6.00054 7.48495 6.21361 6.97129 6.59245 6.59245C6.97129 6.21361 7.48495 6.00054 8.02071 6H12.1607C13.7884 6 13.7913 8.46429 12.1607 8.46429H8.46429V12.1607C8.46429 13.7888 6 13.7908 6 12.1607ZM26.9793 29H22.8393C21.2116 29 21.2088 26.5357 22.8393 26.5357H26.5357V22.8393C26.5357 21.2112 29 21.2092 29 22.8393V26.9793C28.9995 27.515 28.7864 28.0287 28.4075 28.4075C28.0287 28.7864 27.515 28.9995 26.9793 29ZM12.1607 29H8.02071C7.48495 28.9995 6.97129 28.7864 6.59245 28.4075C6.21361 28.0287 6.00054 27.515 6 26.9793V22.8393C6 21.2112 8.46429 21.2092 8.46429 22.8393V26.5357H12.1607C13.7884 26.5357 13.7913 29 12.1607 29ZM27.7679 18.7321H7.23214C5.60448 18.7321 5.60161 16.2679 7.23214 16.2679H27.7679C29.3955 16.2679 29.3984 18.7321 27.7679 18.7321Z" fill="#080808" stroke="#95E362"/>
</g>
<defs>
<clipPath id="clip0_82_7811">
<rect width="25" height="25" fill="white" transform="translate(5 5)"/>
</clipPath>
</defs>
</svg>
