<svg width="26" height="26" viewBox="0 0 26 26" fill="none" xmlns="http://www.w3.org/2000/svg">
<circle cx="13" cy="13" r="10.5" stroke="#94E362"/>
<path d="M8.28492 17.5626C8.34812 17.6242 8.39846 17.6978 8.43301 17.779C8.46756 17.8602 8.48565 17.9475 8.48621 18.0357C8.48678 18.124 8.46981 18.2115 8.4363 18.2931C8.40278 18.3747 8.35339 18.4489 8.29098 18.5113C8.22857 18.5737 8.1544 18.6231 8.07275 18.6566C7.9911 18.6902 7.90361 18.7071 7.81536 18.7066C7.7271 18.706 7.63984 18.6879 7.55862 18.6534C7.47741 18.6188 7.40387 18.5685 7.34227 18.5053C4.21924 15.3797 4.21924 10.315 7.34227 7.1896C7.46781 7.06722 7.63651 6.99923 7.81183 7.00035C7.98714 7.00147 8.15496 7.07161 8.27893 7.19558C8.4029 7.31955 8.47304 7.48737 8.47416 7.66269C8.47528 7.838 8.40729 8.0067 8.28492 8.13225C5.68282 10.7372 5.68282 14.9575 8.28492 17.5626ZM18.6581 7.18926C18.5326 7.06688 18.3639 6.99889 18.1886 7.00001C18.0132 7.00113 17.8454 7.07128 17.7214 7.19524C17.5975 7.31921 17.5273 7.48703 17.5262 7.66235C17.5251 7.83766 17.5931 8.00636 17.7155 8.13191C20.3171 10.737 20.3171 14.9572 17.7155 17.5623C17.6523 17.6239 17.6019 17.6974 17.5674 17.7786C17.5328 17.8599 17.5147 17.9471 17.5142 18.0354C17.5136 18.1236 17.5306 18.2111 17.5641 18.2928C17.5976 18.3744 17.647 18.4486 17.7094 18.511C17.7718 18.5734 17.846 18.6228 17.9276 18.6563C18.0093 18.6898 18.0968 18.7068 18.185 18.7062C18.2733 18.7057 18.3605 18.6876 18.4418 18.653C18.523 18.6185 18.5965 18.5681 18.6581 18.5049C21.7806 15.3792 21.7806 10.315 18.6581 7.18926ZM10.6467 9.55119C10.522 9.42587 10.3528 9.35505 10.1761 9.35426C9.99931 9.35347 9.82945 9.42277 9.70369 9.54698C7.88088 11.3634 7.87582 14.3134 9.69224 16.1364L9.70369 16.1479C9.76552 16.2112 9.83933 16.2616 9.92083 16.2961C10.0023 16.3306 10.0899 16.3485 10.1783 16.3488C10.2668 16.3491 10.3545 16.3319 10.4363 16.298C10.518 16.2641 10.5922 16.2143 10.6545 16.1514C10.7168 16.0886 10.766 16.014 10.7991 15.9319C10.8323 15.8499 10.8488 15.7621 10.8477 15.6736C10.8466 15.5851 10.8279 15.4977 10.7927 15.4165C10.7575 15.3353 10.7065 15.262 10.6426 15.2007C9.34294 13.9035 9.34091 11.7981 10.6383 10.4984L10.6426 10.494C10.7681 10.3695 10.8391 10.2002 10.8398 10.0234C10.8406 9.84664 10.7711 9.67678 10.6467 9.55119ZM13.9449 11.9027C13.9373 11.8951 13.9268 11.8926 13.9189 11.8855C13.6723 11.6472 13.3428 11.514 12.9999 11.514C12.6569 11.5141 12.3274 11.6474 12.081 11.8858C12.0732 11.8929 12.0631 11.8953 12.0557 11.9027C12.0483 11.9101 12.0458 11.9204 12.0388 11.9279C11.8003 12.1746 11.6669 12.5042 11.6669 12.8473C11.6669 13.1905 11.8003 13.5201 12.0388 13.7668C12.0458 13.7745 12.0481 13.7846 12.0557 13.792C12.0633 13.7994 12.0732 13.8018 12.081 13.8089C12.3274 14.0473 12.6569 14.1806 12.9998 14.1807C13.3428 14.1808 13.6723 14.0477 13.9189 13.8094C13.9268 13.8021 13.9373 13.7998 13.9449 13.792C13.9526 13.7844 13.955 13.774 13.9622 13.7659C14.2004 13.5194 14.3335 13.1901 14.3335 12.8473C14.3335 12.5046 14.2004 12.1753 13.9622 11.9288C13.955 11.9207 13.9526 11.9103 13.9449 11.9027ZM16.2962 9.54715C16.2342 9.48442 16.1605 9.4346 16.0791 9.40056C15.9978 9.36653 15.9105 9.34897 15.8224 9.34888C15.7342 9.3488 15.6469 9.3662 15.5655 9.40008C15.4841 9.43395 15.4103 9.48363 15.3482 9.54624C15.2861 9.60886 15.2371 9.68315 15.2039 9.76484C15.1708 9.84652 15.1541 9.93397 15.155 10.0221C15.1559 10.1103 15.1742 10.1974 15.2089 10.2784C15.2437 10.3594 15.2941 10.4328 15.3574 10.4942C16.6571 11.7915 16.6593 13.8968 15.3618 15.1965L15.3574 15.2009C15.2936 15.2621 15.2425 15.3355 15.2073 15.4167C15.1721 15.4978 15.1534 15.5852 15.1523 15.6737C15.1511 15.7622 15.1677 15.85 15.2008 15.932C15.234 16.0141 15.2831 16.0887 15.3454 16.1516C15.4077 16.2144 15.4819 16.2642 15.5636 16.2982C15.6453 16.3321 15.733 16.3494 15.8215 16.349C15.91 16.3487 15.9975 16.3308 16.079 16.2963C16.1605 16.2619 16.2343 16.2115 16.2962 16.1482C18.119 14.3316 18.1242 11.3814 16.3076 9.5586C16.3038 9.55478 16.3 9.55096 16.2962 9.54715Z" fill="#94E362"/>
</svg>
