<svg width="14" height="14" viewBox="0 0 14 14" fill="none" xmlns="http://www.w3.org/2000/svg">
<rect width="14" height="14" rx="3" fill="#191F18"/>
<g clip-path="url(#clip0_188_122)">
<path d="M7 3C5.75 3 4.75 4 4.75 5.25V6.25C4.325 6.25 4 6.575 4 7V10.25C4 10.675 4.325 11 4.75 11H9.25C9.675 11 10 10.675 10 10.25V7C10 6.575 9.675 6.25 9.25 6.25V5.25C9.25 4 8.25 3 7 3ZM9.5 7V10.25C9.5 10.4 9.4 10.5 9.25 10.5H4.75C4.6 10.5 4.5 10.4 4.5 10.25V7C4.5 6.85 4.6 6.75 4.75 6.75H9.25C9.4 6.75 9.5 6.85 9.5 7ZM5.25 6.25V5.25C5.25 4.275 6.025 3.5 7 3.5C7.975 3.5 8.75 4.275 8.75 5.25V6.25H5.25Z" fill="#95E362"/>
<path d="M7 7.5C6.575 7.5 6.25 7.825 6.25 8.25C6.25 8.575 6.45 8.85 6.75 8.95V9.5C6.75 9.65 6.85 9.75 7 9.75C7.15 9.75 7.25 9.65 7.25 9.5V8.95C7.55 8.85 7.75 8.575 7.75 8.25C7.75 7.825 7.425 7.5 7 7.5ZM7 8.5C6.85 8.5 6.75 8.4 6.75 8.25C6.75 8.1 6.85 8 7 8C7.15 8 7.25 8.1 7.25 8.25C7.25 8.4 7.15 8.5 7 8.5Z" fill="#95E362"/>
</g>
<defs>
<clipPath id="clip0_188_122">
<rect width="8" height="8" fill="white" transform="translate(3 3)"/>
</clipPath>
</defs>
</svg>
