<svg width="5" height="9" viewBox="0 0 5 9" fill="none" xmlns="http://www.w3.org/2000/svg">
<path d="M4.66758 4.49994C4.66799 4.57123 4.65433 4.64189 4.62737 4.70789C4.60042 4.77388 4.5607 4.83391 4.5105 4.88452L1.2605 8.13452C1.1585 8.23652 1.02016 8.29382 0.875914 8.29382C0.731668 8.29382 0.593329 8.23652 0.491331 8.13452C0.389333 8.03253 0.332031 7.89419 0.332031 7.74994C0.332031 7.60569 0.389333 7.46735 0.491331 7.36536L3.36216 4.49994L0.496747 1.63452C0.408008 1.5309 0.361638 1.39761 0.366904 1.26129C0.372169 1.12496 0.428683 0.995644 0.525151 0.899177C0.621619 0.802709 0.750935 0.746196 0.88726 0.74093C1.02358 0.735665 1.15688 0.782034 1.2605 0.870773L4.5105 4.12077C4.61057 4.22166 4.66698 4.35784 4.66758 4.49994Z" fill="#95E362"/>
</svg>
