<svg width="26" height="25" viewBox="0 0 26 25" fill="none" xmlns="http://www.w3.org/2000/svg">
<path d="M17.1667 12.5C17.1675 12.6371 17.1412 12.773 17.0894 12.8999C17.0375 13.0268 16.9612 13.1422 16.8646 13.2396L10.6146 19.4896C10.4185 19.6857 10.1524 19.7959 9.87503 19.7959C9.59763 19.7959 9.3316 19.6857 9.13545 19.4896C8.9393 19.2934 8.8291 19.0274 8.8291 18.75C8.8291 18.4726 8.9393 18.2065 9.13545 18.0104L14.6563 12.5L9.14586 6.98955C8.97521 6.79028 8.88604 6.53395 8.89616 6.27179C8.90629 6.00963 9.01497 5.76094 9.20049 5.57542C9.386 5.38991 9.63469 5.28123 9.89685 5.2711C10.159 5.26098 10.4153 5.35015 10.6146 5.5208L16.8646 11.7708C17.0571 11.9648 17.1655 12.2267 17.1667 12.5Z" fill="white"/>
</svg>
