<svg width="23" height="23" viewBox="0 0 23 23" fill="none" xmlns="http://www.w3.org/2000/svg">
<path d="M12.9382 4.00583C12.8111 4.00583 12.6892 3.95535 12.5993 3.86549C12.5095 3.77563 12.459 3.65375 12.459 3.52667V1.91667C12.459 1.38863 12.0287 0.958333 11.5007 0.958333C10.9726 0.958333 10.5423 1.38863 10.5423 1.91667V3.52667C10.5423 3.65375 10.4918 3.77563 10.402 3.86549C10.3121 3.95535 10.1902 4.00583 10.0632 4.00583C9.93607 4.00583 9.81419 3.95535 9.72433 3.86549C9.63447 3.77563 9.58398 3.65375 9.58398 3.52667V1.91667C9.58398 0.859625 10.4436 0 11.5007 0C12.5577 0 13.4173 0.859625 13.4173 1.91667V3.52667C13.4173 3.65375 13.3668 3.77563 13.277 3.86549C13.1871 3.95535 13.0652 4.00583 12.9382 4.00583ZM11.5007 23C9.65107 23 8.14648 21.4954 8.14648 19.6458C8.14648 19.5187 8.19697 19.3969 8.28683 19.307C8.37669 19.2171 8.49857 19.1667 8.62565 19.1667C8.75273 19.1667 8.87461 19.2171 8.96447 19.307C9.05433 19.3969 9.10482 19.5187 9.10482 19.6458C9.10482 20.9664 10.1801 22.0417 11.5007 22.0417C12.8212 22.0417 13.8965 20.9664 13.8965 19.6458C13.8965 19.5187 13.947 19.3969 14.0368 19.307C14.1267 19.2171 14.2486 19.1667 14.3757 19.1667C14.5027 19.1667 14.6246 19.2171 14.7145 19.307C14.8043 19.3969 14.8548 19.5187 14.8548 19.6458C14.8548 21.4954 13.3502 23 11.5007 23Z" fill="white"/>
<path d="M19.646 20.125H3.35428C3.06091 20.124 2.77485 20.0333 2.53443 19.8652C2.29401 19.6971 2.1107 19.4595 2.00907 19.1843C1.90743 18.9091 1.89231 18.6094 1.96573 18.3253C2.03916 18.0413 2.19763 17.7865 2.41991 17.595C3.16326 16.9693 3.76075 16.1885 4.17048 15.3075C4.58021 14.4264 4.79227 13.4664 4.79178 12.4948V9.58333C4.79178 5.88417 7.80095 2.875 11.5001 2.875C15.1993 2.875 18.2085 5.88417 18.2085 9.58333V12.4948C18.2085 14.4622 19.07 16.3185 20.5727 17.5883C20.7975 17.7785 20.9586 18.0331 21.0341 18.3178C21.1096 18.6025 21.0959 18.9035 20.9948 19.1801C20.8937 19.4568 20.7102 19.6957 20.469 19.8647C20.2278 20.0337 19.9405 20.1245 19.646 20.125ZM11.5001 3.83333C8.32899 3.83333 5.75012 6.41221 5.75012 9.58333V12.4948C5.75118 13.6041 5.50977 14.7003 5.04278 15.7066C4.5758 16.7129 3.89453 17.605 3.04666 18.3205C2.97136 18.3836 2.91732 18.4685 2.89187 18.5634C2.86641 18.6584 2.87077 18.7588 2.90435 18.8512C2.93794 18.9436 2.99912 19.0234 3.07961 19.0798C3.16009 19.1363 3.25599 19.1666 3.35428 19.1667H19.646C19.7439 19.1667 19.8395 19.1367 19.9199 19.0807C20.0003 19.0247 20.0615 18.9454 20.0955 18.8535C20.1294 18.7616 20.1344 18.6615 20.1097 18.5667C20.085 18.4719 20.0319 18.387 19.9574 18.3233C19.1088 17.6077 18.4268 16.7153 17.9591 15.7085C17.4915 14.7017 17.2495 13.6048 17.2501 12.4948V9.58333C17.2501 6.41221 14.6712 3.83333 11.5001 3.83333Z" fill="white"/>
</svg>
