<svg width="35" height="35" viewBox="0 0 35 35" fill="none" xmlns="http://www.w3.org/2000/svg">
<rect width="35" height="35" rx="5" fill="#191F18"/>
<path d="M18.9382 10.0058C18.8111 10.0058 18.6892 9.95535 18.5993 9.86549C18.5095 9.77563 18.459 9.65375 18.459 9.52667V7.91667C18.459 7.38863 18.0287 6.95833 17.5007 6.95833C16.9726 6.95833 16.5423 7.38863 16.5423 7.91667V9.52667C16.5423 9.65375 16.4918 9.77563 16.402 9.86549C16.3121 9.95535 16.1902 10.0058 16.0632 10.0058C15.9361 10.0058 15.8142 9.95535 15.7243 9.86549C15.6345 9.77563 15.584 9.65375 15.584 9.52667V7.91667C15.584 6.85962 16.4436 6 17.5007 6C18.5577 6 19.4173 6.85962 19.4173 7.91667V9.52667C19.4173 9.65375 19.3668 9.77563 19.277 9.86549C19.1871 9.95535 19.0652 10.0058 18.9382 10.0058ZM17.5007 29C15.6511 29 14.1465 27.4954 14.1465 25.6458C14.1465 25.5187 14.197 25.3969 14.2868 25.307C14.3767 25.2171 14.4986 25.1667 14.6257 25.1667C14.7527 25.1667 14.8746 25.2171 14.9645 25.307C15.0543 25.3969 15.1048 25.5187 15.1048 25.6458C15.1048 26.9664 16.1801 28.0417 17.5007 28.0417C18.8212 28.0417 19.8965 26.9664 19.8965 25.6458C19.8965 25.5187 19.947 25.3969 20.0368 25.307C20.1267 25.2171 20.2486 25.1667 20.3757 25.1667C20.5027 25.1667 20.6246 25.2171 20.7145 25.307C20.8043 25.3969 20.8548 25.5187 20.8548 25.6458C20.8548 27.4954 19.3502 29 17.5007 29Z" fill="#95E362"/>
<path d="M25.646 26.125H9.35428C9.06091 26.124 8.77485 26.0333 8.53443 25.8652C8.29401 25.6971 8.1107 25.4595 8.00907 25.1843C7.90743 24.9091 7.89231 24.6094 7.96573 24.3253C8.03916 24.0413 8.19763 23.7865 8.41991 23.595C9.16326 22.9693 9.76075 22.1885 10.1705 21.3075C10.5802 20.4264 10.7923 19.4664 10.7918 18.4948V15.5833C10.7918 11.8842 13.801 8.875 17.5001 8.875C21.1993 8.875 24.2085 11.8842 24.2085 15.5833V18.4948C24.2085 20.4622 25.07 22.3185 26.5727 23.5883C26.7975 23.7785 26.9586 24.0331 27.0341 24.3178C27.1096 24.6025 27.0959 24.9035 26.9948 25.1801C26.8937 25.4568 26.7102 25.6957 26.469 25.8647C26.2278 26.0337 25.9405 26.1245 25.646 26.125ZM17.5001 9.83333C14.329 9.83333 11.7501 12.4122 11.7501 15.5833V18.4948C11.7512 19.6041 11.5098 20.7003 11.0428 21.7066C10.5758 22.7129 9.89453 23.605 9.04666 24.3205C8.97136 24.3836 8.91732 24.4685 8.89187 24.5634C8.86641 24.6584 8.87077 24.7588 8.90435 24.8512C8.93794 24.9436 8.99912 25.0234 9.07961 25.0798C9.16009 25.1363 9.25599 25.1666 9.35428 25.1667H25.646C25.7439 25.1667 25.8395 25.1367 25.9199 25.0807C26.0003 25.0247 26.0615 24.9454 26.0955 24.8535C26.1294 24.7616 26.1344 24.6615 26.1097 24.5667C26.085 24.4719 26.0319 24.387 25.9574 24.3233C25.1088 23.6077 24.4268 22.7153 23.9591 21.7085C23.4915 20.7017 23.2495 19.6048 23.2501 18.4948V15.5833C23.2501 12.4122 20.6712 9.83333 17.5001 9.83333Z" fill="#95E362"/>
</svg>
