<svg width="35" height="35" viewBox="0 0 35 35" fill="none" xmlns="http://www.w3.org/2000/svg">
<rect width="35" height="35" rx="5" fill="#191F18"/>
<g clip-path="url(#clip0_82_7763)">
<path d="M17.3984 29C17.3276 29.0001 17.2576 28.9844 17.1935 28.9542C17.1294 28.924 17.0729 28.8799 17.0279 28.8252C16.9829 28.7705 16.9505 28.7065 16.9333 28.6378C16.916 28.5691 16.9141 28.4974 16.9279 28.4279L17.6054 25.0402C17.6234 24.947 17.6692 24.8615 17.7367 24.7948L25.1906 17.3409C25.4606 17.0721 25.826 16.9212 26.2069 16.9212C26.5879 16.9212 26.9533 17.0721 27.2232 17.3409L28.5783 18.696C28.8476 18.9657 28.9988 19.3312 28.9988 19.7123C28.9988 20.0934 28.8476 20.4589 28.5783 20.7286L21.1244 28.1825C21.0575 28.2498 20.9721 28.2955 20.8791 28.3138L17.4914 28.9914C17.4607 28.9971 17.4296 29 17.3984 29ZM18.5177 25.3689L18.0098 27.9094L20.5504 27.4015L27.9018 20.0501C27.9916 19.9603 28.042 19.8384 28.042 19.7114C28.042 19.5843 27.9916 19.4624 27.9018 19.3726L26.5467 18.0175C26.4568 17.9277 26.335 17.8772 26.2079 17.8772C26.0808 17.8772 25.959 17.9277 25.8691 18.0175L18.5177 25.3689ZM15.1042 26.125H8.39583C7.76057 26.1245 7.15148 25.8719 6.70228 25.4227C6.25309 24.9735 6.00051 24.3644 6 23.7292V11.2708C6 9.94929 7.07429 8.875 8.39583 8.875H10.3125C10.4396 8.875 10.5615 8.92548 10.6513 9.01534C10.7412 9.10521 10.7917 9.22708 10.7917 9.35417C10.7917 9.48125 10.7412 9.60313 10.6513 9.69299C10.5615 9.78285 10.4396 9.83333 10.3125 9.83333H8.39583C7.60329 9.83333 6.95833 10.4783 6.95833 11.2708V23.7292C6.95833 24.5217 7.60329 25.1667 8.39583 25.1667H15.1042C15.2312 25.1667 15.3531 25.2171 15.443 25.307C15.5329 25.3969 15.5833 25.5187 15.5833 25.6458C15.5833 25.7729 15.5329 25.8948 15.443 25.9847C15.3531 26.0745 15.2312 26.125 15.1042 26.125ZM21.8125 17.5C21.6854 17.5 21.5635 17.4495 21.4737 17.3597C21.3838 17.2698 21.3333 17.1479 21.3333 17.0208V11.2708C21.3333 10.4783 20.6884 9.83333 19.8958 9.83333H17.9792C17.8521 9.83333 17.7302 9.78285 17.6403 9.69299C17.5505 9.60313 17.5 9.48125 17.5 9.35417C17.5 9.22708 17.5505 9.10521 17.6403 9.01534C17.7302 8.92548 17.8521 8.875 17.9792 8.875H19.8958C21.2174 8.875 22.2917 9.94929 22.2917 11.2708V17.0208C22.2917 17.1479 22.2412 17.2698 22.1513 17.3597C22.0615 17.4495 21.9396 17.5 21.8125 17.5Z" fill="#95E362"/>
<path d="M17.0208 11.75H11.2708C10.4783 11.75 9.83333 11.105 9.83333 10.3125V8.39583C9.83333 8.26875 9.88382 8.14687 9.97368 8.05701C10.0635 7.96715 10.1854 7.91667 10.3125 7.91667H11.7979C12.0203 6.82417 12.9891 6 14.1458 6C15.3025 6 16.2714 6.82417 16.4938 7.91667H17.9792C18.1063 7.91667 18.2281 7.96715 18.318 8.05701C18.4079 8.14687 18.4583 8.26875 18.4583 8.39583V10.3125C18.4583 11.105 17.8134 11.75 17.0208 11.75ZM10.7917 8.875V10.3125C10.7917 10.576 11.0073 10.7917 11.2708 10.7917H17.0208C17.2844 10.7917 17.5 10.576 17.5 10.3125V8.875H16.0625C15.9354 8.875 15.8135 8.82452 15.7237 8.73466C15.6338 8.64479 15.5833 8.52292 15.5833 8.39583C15.5833 7.60329 14.9384 6.95833 14.1458 6.95833C13.3533 6.95833 12.7083 7.60329 12.7083 8.39583C12.7083 8.52292 12.6579 8.64479 12.568 8.73466C12.4781 8.82452 12.3563 8.875 12.2292 8.875H10.7917ZM18.9375 14.625H9.35417C9.22708 14.625 9.10521 14.5745 9.01534 14.4847C8.92548 14.3948 8.875 14.2729 8.875 14.1458C8.875 14.0188 8.92548 13.8969 9.01534 13.807C9.10521 13.7171 9.22708 13.6667 9.35417 13.6667H18.9375C19.0646 13.6667 19.1865 13.7171 19.2763 13.807C19.3662 13.8969 19.4167 14.0188 19.4167 14.1458C19.4167 14.2729 19.3662 14.3948 19.2763 14.4847C19.1865 14.5745 19.0646 14.625 18.9375 14.625ZM18.9375 17.5H9.35417C9.22708 17.5 9.10521 17.4495 9.01534 17.3597C8.92548 17.2698 8.875 17.1479 8.875 17.0208C8.875 16.8938 8.92548 16.7719 9.01534 16.682C9.10521 16.5921 9.22708 16.5417 9.35417 16.5417H18.9375C19.0646 16.5417 19.1865 16.5921 19.2763 16.682C19.3662 16.7719 19.4167 16.8938 19.4167 17.0208C19.4167 17.1479 19.3662 17.2698 19.2763 17.3597C19.1865 17.4495 19.0646 17.5 18.9375 17.5ZM18.9375 20.375H9.35417C9.22708 20.375 9.10521 20.3245 9.01534 20.2347C8.92548 20.1448 8.875 20.0229 8.875 19.8958C8.875 19.7688 8.92548 19.6469 9.01534 19.557C9.10521 19.4671 9.22708 19.4167 9.35417 19.4167H18.9375C19.0646 19.4167 19.1865 19.4671 19.2763 19.557C19.3662 19.6469 19.4167 19.7688 19.4167 19.8958C19.4167 20.0229 19.3662 20.1448 19.2763 20.2347C19.1865 20.3245 19.0646 20.375 18.9375 20.375Z" fill="#95E362"/>
</g>
<defs>
<clipPath id="clip0_82_7763">
<rect width="23" height="23" fill="white" transform="translate(6 6)"/>
</clipPath>
</defs>
</svg>
