<svg width="16" height="16" viewBox="0 0 16 16" fill="none" xmlns="http://www.w3.org/2000/svg">
<rect opacity="0.05" width="16" height="16" rx="8" fill="#FF3434"/>
<path d="M7.99826 12.4718C7.6626 12.4718 7.39062 12.1998 7.39062 11.8642V4.13596C7.39062 3.8003 7.6626 3.52832 7.99826 3.52832C8.33392 3.52832 8.6059 3.8003 8.6059 4.13596V11.8642C8.6059 12.1998 8.33392 12.4718 7.99826 12.4718Z" fill="#FF3434"/>
<path d="M11.8632 8.60773H4.13498C3.79932 8.60773 3.52734 8.33575 3.52734 8.00009C3.52734 7.66444 3.79932 7.39246 4.13498 7.39246H11.8632C12.1988 7.39246 12.4708 7.66444 12.4708 8.00009C12.4708 8.33575 12.1988 8.60773 11.8632 8.60773Z" fill="#FF3434"/>
</svg>
