<svg width="35" height="35" viewBox="0 0 35 35" fill="none" xmlns="http://www.w3.org/2000/svg">
<rect width="35" height="35" rx="5" fill="#191F18"/>
<path d="M22.3183 28C22.1927 28.0007 22.0682 27.9766 21.9519 27.9291C21.8357 27.8817 21.7299 27.8117 21.6408 27.7232L17.8236 23.9061C17.6439 23.7264 17.5429 23.4826 17.5429 23.2285C17.5429 22.9744 17.6439 22.7307 17.8236 22.551C18.0033 22.3713 18.247 22.2703 18.5011 22.2703C18.7553 22.2703 18.999 22.3713 19.1787 22.551L21.364 24.7458V7.95983C21.364 7.70673 21.4645 7.464 21.6435 7.28504C21.8225 7.10607 22.0652 7.00553 22.3183 7.00553C22.5714 7.00553 22.8141 7.10607 22.9931 7.28504C23.1721 7.464 23.2726 7.70673 23.2726 7.95983V24.7458L25.4579 22.551C25.6376 22.3713 25.8813 22.2703 26.1355 22.2703C26.3896 22.2703 26.6333 22.3713 26.813 22.551C26.9927 22.7307 27.0937 22.9744 27.0937 23.2285C27.0937 23.4826 26.9927 23.7264 26.813 23.9061L22.9958 27.7232C22.9067 27.8117 22.8009 27.8817 22.6847 27.9291C22.5684 27.9766 22.4439 28.0007 22.3183 28ZM12.7754 28C12.5223 28 12.2795 27.8994 12.1006 27.7205C11.9216 27.5415 11.8211 27.2988 11.8211 27.0457V10.2597L9.63575 12.4545C9.45605 12.6342 9.21233 12.7352 8.9582 12.7352C8.70407 12.7352 8.46035 12.6342 8.28065 12.4545C8.10095 12.2749 8 12.0311 8 11.777C8 11.5229 8.10095 11.2791 8.28065 11.0995L12.0978 7.28228C12.1865 7.19283 12.2921 7.12184 12.4084 7.07339C12.5247 7.02494 12.6494 7 12.7754 7C12.9013 7 13.0261 7.02494 13.1424 7.07339C13.2587 7.12184 13.3642 7.19283 13.4529 7.28228L17.2701 11.0995C17.4498 11.2791 17.5507 11.5229 17.5507 11.777C17.5507 12.0311 17.4498 12.2749 17.2701 12.4545C17.0904 12.6342 16.8467 12.7352 16.5925 12.7352C16.3384 12.7352 16.0947 12.6342 15.915 12.4545L13.7297 10.2597V27.0457C13.7297 27.2988 13.6291 27.5415 13.4502 27.7205C13.2712 27.8994 13.0285 28 12.7754 28Z" fill="#95E362"/>
</svg>
