<svg width="26" height="26" viewBox="0 0 26 26" fill="none" xmlns="http://www.w3.org/2000/svg">
<path d="M7.58073 21.6673C6.93073 21.6673 6.4974 21.234 6.4974 20.584V8.01732L4.00573 10.509C3.5724 10.9423 2.9224 10.9423 2.48906 10.509C2.05573 10.0757 2.05573 9.42565 2.48906 8.99232L6.8224 4.65898C6.93073 4.55065 7.03906 4.44232 7.1474 4.44232C7.25573 4.33398 7.4724 4.33398 7.58073 4.33398C7.68906 4.33398 7.90573 4.33398 8.01406 4.44232C8.1224 4.44232 8.23073 4.55065 8.33906 4.65898L12.6724 8.99232C13.1057 9.42565 13.1057 10.0757 12.6724 10.509C12.2391 10.9423 11.5891 10.9423 11.1557 10.509L8.66406 8.01732V20.584C8.66406 21.234 8.23073 21.6673 7.58073 21.6673ZM18.4141 21.6673C18.3057 21.6673 18.0891 21.6673 17.9807 21.559C17.8724 21.559 17.7641 21.4507 17.6557 21.3423L13.3224 17.009C12.8891 16.5757 12.8891 15.9257 13.3224 15.4923C13.7557 15.059 14.4057 15.059 14.8391 15.4923L17.3307 17.984V5.41732C17.3307 4.76732 17.7641 4.33398 18.4141 4.33398C19.0641 4.33398 19.4974 4.76732 19.4974 5.41732V17.984L21.9891 15.4923C22.4224 15.059 23.0724 15.059 23.5057 15.4923C23.9391 15.9257 23.9391 16.5757 23.5057 17.009L19.1724 21.3423C19.0641 21.4507 18.9557 21.559 18.8474 21.559C18.7391 21.6673 18.5224 21.6673 18.4141 21.6673Z" fill="#94E362"/>
</svg>
