<svg width="18" height="18" viewBox="0 0 18 18" fill="none" xmlns="http://www.w3.org/2000/svg">
<path d="M9.21607 8.2882C10.2173 8.2882 11.0842 7.92907 11.7927 7.22053C12.501 6.51214 12.8603 5.64535 12.8603 4.644C12.8603 3.64293 12.5012 2.77606 11.7926 2.0674C11.0841 1.3591 10.2172 1 9.21607 1C8.21468 1 7.34787 1.3591 6.63947 2.06752C5.93108 2.77594 5.57183 3.64284 5.57183 4.644C5.57183 5.64535 5.93105 6.51225 6.6395 7.22068C7.34813 7.92898 8.21503 8.2882 9.21604 8.2882H9.21607ZM7.26651 2.69444C7.81007 2.15086 8.44775 1.88664 9.21607 1.88664C9.98427 1.88664 10.622 2.15086 11.1657 2.69444C11.7093 3.23812 11.9736 3.87588 11.9736 4.64397C11.9736 5.41229 11.7093 6.04996 11.1657 6.59364C10.622 7.13734 9.98427 7.40156 9.21607 7.40156C8.44795 7.40156 7.81034 7.13722 7.26651 6.59364C6.72281 6.05008 6.45848 5.41232 6.45848 4.644C6.45848 3.87588 6.72281 3.23812 7.26651 2.69444ZM15.5924 12.6342C15.572 12.3394 15.5307 12.0178 15.4698 11.6782C15.4084 11.3361 15.3294 11.0126 15.2347 10.717C15.1368 10.4115 15.004 10.1097 14.8395 9.82055C14.669 9.52044 14.4686 9.25909 14.2437 9.04405C14.0086 8.81908 13.7207 8.6382 13.3878 8.50622C13.056 8.37502 12.6884 8.30853 12.2951 8.30853C12.1406 8.30853 11.9913 8.37189 11.7028 8.55971C11.4978 8.69324 11.2921 8.82582 11.0858 8.95746C10.8876 9.08376 10.6191 9.20209 10.2875 9.30921C9.96394 9.41391 9.63542 9.46701 9.31104 9.46701C8.98693 9.46701 8.65838 9.41391 8.3346 9.30921C8.00333 9.20217 7.73471 9.08388 7.53684 8.95758C7.30723 8.81086 7.09949 8.67697 6.91929 8.55956C6.63105 8.37177 6.48167 8.30838 6.32724 8.30838C5.93383 8.30838 5.56631 8.37499 5.23466 8.50637C4.90198 8.63808 4.61398 8.81896 4.3786 9.04417C4.15375 9.25933 3.95337 9.52052 3.78298 9.82055C3.61873 10.1097 3.48576 10.4113 3.38785 10.7171C3.29329 11.0128 3.21424 11.3361 3.15284 11.6782C3.09187 12.0174 3.05068 12.3391 3.03023 12.6346C3.01014 12.9235 3 13.2242 3 13.528C3 14.3178 3.25106 14.9572 3.74616 15.4287C4.23513 15.8941 4.88203 16.13 5.66891 16.13H12.9541C13.7408 16.13 14.3877 15.8941 14.8768 15.4288C15.372 14.9575 15.623 14.3179 15.623 13.5279C15.6229 13.2231 15.6127 12.9224 15.5924 12.6342ZM14.2654 14.7864C13.9423 15.0939 13.5134 15.2434 12.954 15.2434H5.66894C5.10945 15.2434 4.68049 15.0939 4.3575 14.7865C4.04066 14.4848 3.88667 14.0731 3.88667 13.528C3.88667 13.2445 3.89601 12.9646 3.91474 12.6959C3.93295 12.4322 3.97024 12.1426 4.02556 11.8349C4.08014 11.5309 4.14961 11.2457 4.23227 10.9875C4.31158 10.7398 4.41974 10.4947 4.55387 10.2585C4.68188 10.0334 4.82916 9.84029 4.99169 9.68471C5.14373 9.53914 5.33537 9.42002 5.56114 9.33069C5.76994 9.24801 6.00463 9.20277 6.25939 9.19594C6.29042 9.21249 6.34574 9.24399 6.43531 9.30238C6.61758 9.42118 6.82765 9.55669 7.05992 9.70501C7.32174 9.87194 7.65901 10.0227 8.06199 10.1528C8.47396 10.286 8.89414 10.3536 9.31119 10.3536C9.72827 10.3536 10.1485 10.286 10.5603 10.1529C10.9636 10.0226 11.3008 9.87194 11.563 9.70477C11.8006 9.55288 12.0048 9.42129 12.1871 9.30238C12.2767 9.24408 12.332 9.21246 12.363 9.19597C12.6179 9.20276 12.8526 9.24801 13.0615 9.33066C13.2872 9.42002 13.4788 9.53926 13.6308 9.68468C13.7933 9.84018 13.9406 10.0333 14.0686 10.2586C14.2029 10.4947 14.3112 10.74 14.3903 10.9874C14.4731 11.2459 14.5427 11.531 14.5972 11.8347C14.6524 12.1431 14.6898 12.4328 14.708 12.696V12.6962C14.7268 12.9639 14.7363 13.2437 14.7364 13.528C14.7363 14.0732 14.5823 14.4849 14.2655 14.7864H14.2654Z" fill="#565656"/>
</svg>
