<svg width="18" height="18" viewBox="0 0 18 18" fill="none" xmlns="http://www.w3.org/2000/svg">
<path d="M9.21602 8.28814C10.2173 8.28814 11.0843 7.92901 11.7927 7.22048C12.5011 6.51209 12.8602 5.64532 12.8602 4.64397C12.8602 3.64291 12.5011 2.77605 11.7926 2.0674C11.084 1.3591 10.2171 1 9.21602 1C8.21464 1 7.34783 1.3591 6.63945 2.06751C5.93106 2.77593 5.57182 3.64282 5.57182 4.64397C5.57182 5.64532 5.93103 6.51221 6.63957 7.22063C7.3481 7.92892 8.21499 8.28814 9.21602 8.28814ZM15.5923 12.6341C15.5719 12.3393 15.5306 12.0177 15.4697 11.6781C15.4083 11.336 15.3293 11.0126 15.2346 10.7169C15.1369 10.4114 15.0039 10.1097 14.8395 9.82048C14.6689 9.52037 14.4685 9.25902 14.2436 9.04398C14.0085 8.81902 13.7206 8.63814 13.3877 8.50616C13.056 8.37496 12.6883 8.30847 12.295 8.30847C12.1406 8.30847 11.9912 8.37183 11.7028 8.55965C11.4977 8.69318 11.292 8.82576 11.0858 8.9574C10.8876 9.0837 10.6191 9.20202 10.2874 9.30914C9.96388 9.41384 9.63537 9.46694 9.31111 9.46694C8.98689 9.46694 8.65846 9.41384 8.33456 9.30914C8.00329 9.20211 7.7348 9.08382 7.53681 8.95752C7.3072 8.8108 7.09946 8.67691 6.91926 8.5595C6.63114 8.37171 6.48165 8.30832 6.32722 8.30832C5.93381 8.30832 5.56629 8.37493 5.23464 8.50631C4.90196 8.63802 4.61397 8.8189 4.37859 9.0441C4.15386 9.25926 3.95336 9.52046 3.78297 9.82048C3.61873 10.1096 3.48575 10.4113 3.38785 10.717C3.29329 11.0127 3.21424 11.336 3.15284 11.6781C3.09199 12.0173 3.05068 12.339 3.03023 12.6345C3.00989 12.9319 2.99981 13.2299 3 13.5279C3 14.3177 3.25106 14.9571 3.74615 15.4286C4.23513 15.8939 4.88211 16.13 5.66889 16.13H12.954C13.7408 16.13 14.3876 15.8941 14.8767 15.4286C15.3719 14.9574 15.6229 14.318 15.6229 13.5278C15.6228 13.223 15.6126 12.9223 15.5923 12.6341Z" fill="url(#paint0_linear_82_2738)"/>
<defs>
<linearGradient id="paint0_linear_82_2738" x1="9.31147" y1="1" x2="9.31147" y2="16.13" gradientUnits="userSpaceOnUse">
<stop stop-color="#95E362"/>
<stop offset="1" stop-color="#D1F560"/>
</linearGradient>
</defs>
</svg>
