<svg width="30" height="30" viewBox="0 0 30 30" fill="none" xmlns="http://www.w3.org/2000/svg">
<rect opacity="0.1" width="30" height="30" rx="5" fill="#FF3434"/>
<path d="M14.864 21.112C14.1173 21.112 13.4453 20.984 12.848 20.728C12.2507 20.4613 11.7813 20.088 11.44 19.608C11.0987 19.128 10.928 18.568 10.928 17.928H12.88C12.9227 18.408 13.1093 18.8027 13.44 19.112C13.7813 19.4213 14.256 19.576 14.864 19.576C15.4933 19.576 15.984 19.4267 16.336 19.128C16.688 18.8187 16.864 18.424 16.864 17.944C16.864 17.5707 16.752 17.2667 16.528 17.032C16.3147 16.7973 16.0427 16.616 15.712 16.488C15.392 16.36 14.944 16.2213 14.368 16.072C13.6427 15.88 13.0507 15.688 12.592 15.496C12.144 15.2933 11.76 14.984 11.44 14.568C11.12 14.152 10.96 13.5973 10.96 12.904C10.96 12.264 11.12 11.704 11.44 11.224C11.76 10.744 12.208 10.376 12.784 10.12C13.36 9.864 14.0267 9.736 14.784 9.736C15.8613 9.736 16.7413 10.008 17.424 10.552C18.1173 11.0853 18.5013 11.8213 18.576 12.76H16.56C16.528 12.3547 16.336 12.008 15.984 11.72C15.632 11.432 15.168 11.288 14.592 11.288C14.0693 11.288 13.6427 11.4213 13.312 11.688C12.9813 11.9547 12.816 12.3387 12.816 12.84C12.816 13.1813 12.9173 13.464 13.12 13.688C13.3333 13.9013 13.6 14.072 13.92 14.2C14.24 14.328 14.6773 14.4667 15.232 14.616C15.968 14.8187 16.5653 15.0213 17.024 15.224C17.4933 15.4267 17.888 15.7413 18.208 16.168C18.5387 16.584 18.704 17.144 18.704 17.848C18.704 18.4133 18.5493 18.9467 18.24 19.448C17.9413 19.9493 17.4987 20.3547 16.912 20.664C16.336 20.9627 15.6533 21.112 14.864 21.112Z" fill="#FF3434"/>
</svg>
