<svg width="18" height="18" viewBox="0 0 18 18" fill="none" xmlns="http://www.w3.org/2000/svg">
<path d="M1.54036 5.86321C1.68367 5.86321 1.82111 5.80628 1.92245 5.70495C2.02378 5.60361 2.08071 5.46617 2.08071 5.32286V2.62107C2.08071 2.47776 2.13764 2.34032 2.23898 2.23898C2.34032 2.13764 2.47776 2.08071 2.62107 2.08071H5.59304C5.73635 2.08071 5.87379 2.02378 5.97513 1.92245C6.07646 1.82111 6.13339 1.68367 6.13339 1.54036C6.13339 1.39705 6.07646 1.2596 5.97513 1.15827C5.87379 1.05693 5.73635 1 5.59304 1H2.62107C2.19114 1 1.77881 1.17079 1.4748 1.4748C1.17079 1.77881 1 2.19114 1 2.62107V5.32286C1 5.46617 1.05693 5.60361 1.15827 5.70495C1.2596 5.80628 1.39705 5.86321 1.54036 5.86321ZM14.5089 1H11.537C11.3937 1 11.2562 1.05693 11.1549 1.15827C11.0535 1.2596 10.9966 1.39705 10.9966 1.54036C10.9966 1.68367 11.0535 1.82111 11.1549 1.92245C11.2562 2.02378 11.3937 2.08071 11.537 2.08071H14.5089C14.6522 2.08071 14.7897 2.13764 14.891 2.23898C14.9924 2.34032 15.0493 2.47776 15.0493 2.62107V5.32286C15.0493 5.46617 15.1062 5.60361 15.2076 5.70495C15.3089 5.80628 15.4463 5.86321 15.5896 5.86321C15.733 5.86321 15.8704 5.80628 15.9717 5.70495C16.0731 5.60361 16.13 5.46617 16.13 5.32286V2.62107C16.13 2.19114 15.9592 1.77881 15.6552 1.4748C15.3512 1.17079 14.9389 1 14.5089 1ZM15.5896 11.2668C15.4463 11.2668 15.3089 11.3237 15.2076 11.4251C15.1062 11.5264 15.0493 11.6638 15.0493 11.8071V14.5089C15.0493 14.6522 14.9924 14.7897 14.891 14.891C14.7897 14.9924 14.6522 15.0493 14.5089 15.0493H11.537C11.3937 15.0493 11.2562 15.1062 11.1549 15.2076C11.0535 15.3089 10.9966 15.4463 10.9966 15.5896C10.9966 15.733 11.0535 15.8704 11.1549 15.9717C11.2562 16.0731 11.3937 16.13 11.537 16.13H14.5089C14.9389 16.13 15.3512 15.9592 15.6552 15.6552C15.9592 15.3512 16.13 14.9389 16.13 14.5089V11.8071C16.13 11.6638 16.0731 11.5264 15.9717 11.4251C15.8704 11.3237 15.733 11.2668 15.5896 11.2668ZM5.59304 15.0493H2.62107C2.47776 15.0493 2.34032 14.9924 2.23898 14.891C2.13764 14.7897 2.08071 14.6522 2.08071 14.5089V11.8071C2.08071 11.6638 2.02378 11.5264 1.92245 11.4251C1.82111 11.3237 1.68367 11.2668 1.54036 11.2668C1.39705 11.2668 1.2596 11.3237 1.15827 11.4251C1.05693 11.5264 1 11.6638 1 11.8071V14.5089C1 14.9389 1.17079 15.3512 1.4748 15.6552C1.77881 15.9592 2.19114 16.13 2.62107 16.13H5.59304C5.73635 16.13 5.87379 16.0731 5.97513 15.9717C6.07646 15.8704 6.13339 15.733 6.13339 15.5896C6.13339 15.4463 6.07646 15.3089 5.97513 15.2076C5.87379 15.1062 5.73635 15.0493 5.59304 15.0493ZM15.5896 8.02464H1.54036C1.39705 8.02464 1.2596 8.08157 1.15827 8.18291C1.05693 8.28425 1 8.42169 1 8.565C1 8.70831 1.05693 8.84575 1.15827 8.94709C1.2596 9.04843 1.39705 9.10536 1.54036 9.10536H15.5896C15.733 9.10536 15.8704 9.04843 15.9717 8.94709C16.0731 8.84575 16.13 8.70831 16.13 8.565C16.13 8.42169 16.0731 8.28425 15.9717 8.18291C15.8704 8.08157 15.733 8.02464 15.5896 8.02464Z" fill="#565656"/>
</svg>
