<svg width="16" height="16" viewBox="0 0 16 16" fill="none" xmlns="http://www.w3.org/2000/svg">
<path d="M5.13317 4.51295C4.94857 4.3282 4.64907 4.3282 4.46447 4.51295C3.77907 5.19835 3.4422 6.15315 3.5401 7.1327C3.56452 7.37673 3.7701 7.55863 4.01017 7.55863C4.02595 7.55863 4.04185 7.55783 4.05762 7.55625C4.31757 7.53025 4.5072 7.29835 4.4812 7.03858C4.41152 6.34245 4.64925 5.66558 5.13317 5.18163C5.31792 4.99705 5.31792 4.69753 5.13317 4.51295Z" fill="#ABABAB"/>
<path d="M7.00651 1.59998C4.02513 1.59998 1.59961 4.0255 1.59961 7.00688C1.59961 9.98825 4.02513 12.4138 7.00651 12.4138C9.98789 12.4138 12.4134 9.98825 12.4134 7.00688C12.4134 4.0255 9.98786 1.59998 7.00651 1.59998ZM7.00651 11.468C4.54661 11.468 2.54543 9.46678 2.54543 7.00688C2.54543 4.54698 4.54661 2.5458 7.00651 2.5458C9.46626 2.5458 11.4676 4.54698 11.4676 7.00688C11.4676 9.46678 9.46641 11.468 7.00651 11.468Z" fill="#ABABAB"/>
<path d="M14.2613 13.5927L10.8248 10.1563C10.6401 9.97151 10.3409 9.97151 10.1561 10.1563C9.97139 10.3409 9.97139 10.6404 10.1561 10.825L13.5926 14.2614C13.6365 14.3054 13.6886 14.3403 13.746 14.3641C13.8033 14.3878 13.8649 14.4 13.927 14.4C14.048 14.4 14.1689 14.3538 14.2613 14.2614C14.446 14.0768 14.446 13.7773 14.2613 13.5927Z" fill="#ABABAB"/>
</svg>
