<svg width="15" height="15" viewBox="0 0 15 15" fill="none" xmlns="http://www.w3.org/2000/svg">
<path d="M13.4583 5.33333C13.3147 5.33333 13.1769 5.27627 13.0753 5.17468C12.9737 5.0731 12.9167 4.93533 12.9167 4.79167V2.625C12.9167 2.326 12.6735 2.08333 12.375 2.08333H10.2083C10.0647 2.08333 9.9269 2.02627 9.82532 1.92468C9.72373 1.8231 9.66667 1.68533 9.66667 1.54167C9.66667 1.39801 9.72373 1.26023 9.82532 1.15865C9.9269 1.05707 10.0647 1 10.2083 1H12.375C13.2709 1 14 1.72908 14 2.625V4.79167C14 4.93533 13.9429 5.0731 13.8414 5.17468C13.7398 5.27627 13.602 5.33333 13.4583 5.33333ZM12.375 14H10.2083C10.0647 14 9.9269 13.9429 9.82532 13.8414C9.72373 13.7398 9.66667 13.602 9.66667 13.4583C9.66667 13.3147 9.72373 13.1769 9.82532 13.0753C9.9269 12.9737 10.0647 12.9167 10.2083 12.9167H12.375C12.6735 12.9167 12.9167 12.674 12.9167 12.375V10.2083C12.9167 10.0647 12.9737 9.9269 13.0753 9.82532C13.1769 9.72373 13.3147 9.66667 13.4583 9.66667C13.602 9.66667 13.7398 9.72373 13.8414 9.82532C13.9429 9.9269 14 10.0647 14 10.2083V12.375C14 13.2709 13.2709 14 12.375 14ZM4.79167 14H2.625C1.72908 14 1 13.2709 1 12.375V10.2083C1 10.0647 1.05707 9.9269 1.15865 9.82532C1.26023 9.72373 1.39801 9.66667 1.54167 9.66667C1.68533 9.66667 1.8231 9.72373 1.92468 9.82532C2.02627 9.9269 2.08333 10.0647 2.08333 10.2083V12.375C2.08333 12.674 2.32654 12.9167 2.625 12.9167H4.79167C4.93533 12.9167 5.0731 12.9737 5.17468 13.0753C5.27627 13.1769 5.33333 13.3147 5.33333 13.4583C5.33333 13.602 5.27627 13.7398 5.17468 13.8414C5.0731 13.9429 4.93533 14 4.79167 14ZM1.54167 5.33333C1.39801 5.33333 1.26023 5.27627 1.15865 5.17468C1.05707 5.0731 1 4.93533 1 4.79167V2.625C1 1.72908 1.72908 1 2.625 1H4.79167C4.93533 1 5.0731 1.05707 5.17468 1.15865C5.27627 1.26023 5.33333 1.39801 5.33333 1.54167C5.33333 1.68533 5.27627 1.8231 5.17468 1.92468C5.0731 2.02627 4.93533 2.08333 4.79167 2.08333H2.625C2.32654 2.08333 2.08333 2.326 2.08333 2.625V4.79167C2.08333 4.93533 2.02627 5.0731 1.92468 5.17468C1.8231 5.27627 1.68533 5.33333 1.54167 5.33333ZM10.75 6.95833C10.6063 6.95833 10.4686 6.90127 10.367 6.79968C10.2654 6.6981 10.2083 6.56033 10.2083 6.41667V4.79167H4.79167V6.41667C4.79167 6.56033 4.7346 6.6981 4.63302 6.79968C4.53143 6.90127 4.39366 6.95833 4.25 6.95833C4.10634 6.95833 3.96857 6.90127 3.86698 6.79968C3.7654 6.6981 3.70833 6.56033 3.70833 6.41667V4.79167C3.70833 4.19421 4.19421 3.70833 4.79167 3.70833H10.2083C10.8058 3.70833 11.2917 4.19421 11.2917 4.79167V6.41667C11.2917 6.56033 11.2346 6.6981 11.133 6.79968C11.0314 6.90127 10.8937 6.95833 10.75 6.95833ZM12.375 8.58333C12.375 8.72699 12.3179 8.86477 12.2164 8.96635C12.1148 9.06793 11.977 9.125 11.8333 9.125H11.2917V10.2083C11.2917 10.8058 10.8058 11.2917 10.2083 11.2917H4.79167C4.19421 11.2917 3.70833 10.8058 3.70833 10.2083V9.125H3.16667C3.02301 9.125 2.88523 9.06793 2.78365 8.96635C2.68207 8.86477 2.625 8.72699 2.625 8.58333C2.625 8.43967 2.68207 8.3019 2.78365 8.20032C2.88523 8.09874 3.02301 8.04167 3.16667 8.04167H11.8333C11.977 8.04167 12.1148 8.09874 12.2164 8.20032C12.3179 8.3019 12.375 8.43967 12.375 8.58333Z" fill="white"/>
</svg>
