<svg width="375" height="313" viewBox="0 0 375 313" fill="none" xmlns="http://www.w3.org/2000/svg">
<path d="M633 98.2924L599.683 79.3913L590.514 93.9837L582.852 110.747L575.828 112.658L561.142 88.8419L555.389 98.2924H531.122L527.295 110.747L499.193 129.531L489.612 122.706L483.867 146.067L476.205 137.273L473.008 146.067L465.346 126.358L450.02 182.085L442.989 176.64L435.326 182.085L429.581 158.783L426.385 192.756L414.895 188.085L407.863 227.991L393.816 148.836L382.965 137.273L375.303 114.719L372.106 170.834L358.69 141.346L350.388 100.893L338.259 111.858L323.573 112.658L313.993 97.392L299.937 90.0789L288.448 72.5832L279.506 64.9925L272.483 47.7324L267.369 72.5832L259.067 77.0182L246.299 155.913L240.545 134.21L223.941 127.343L218.196 108.189L204.149 100.952L192.012 86.4182L169.503 119.39L161.841 108.357L150.351 95.0188L142.688 111.698L122.249 86.3509L76.4237 108.189L63.6554 45.8894L28.5298 47.7324L2.98462 12.0088L-20.6512 0L-43 9.34115V316H633V98.2924Z" fill="white" fill-opacity="0.02"/>
<path d="M338.595 112.229L350.075 101.851L358.201 141.446L358.212 141.502L358.235 141.553L371.651 171.041L372.606 170.862L375.656 117.313L382.492 137.434L382.527 137.536L382.601 137.615L393.35 149.069L407.371 228.079L408.355 228.078L415.28 188.781L426.196 193.219L426.819 193.472L426.882 192.803L429.802 161.769L434.84 182.205L435.016 182.918L435.615 182.493L442.976 177.263L449.714 182.48L450.305 182.937L450.503 182.218L465.427 127.947L472.542 146.248L473.024 147.487L473.478 146.238L476.385 138.241L483.491 146.395L484.123 147.121L484.353 146.186L489.922 123.54L498.903 129.938L499.184 130.138L499.471 129.946L527.573 111.163L527.721 111.064L527.773 110.894L531.492 98.7924H555.389H555.67L555.816 98.5524L561.145 89.7989L575.403 112.92L575.599 113.238L575.96 113.14L582.983 111.23L583.209 111.168L583.307 110.955L590.956 94.2217L599.852 80.0621L632.5 98.5836V315.5H-42.5V9.67408L-20.6716 0.550456L2.64906 12.3992L28.123 48.0232L28.2824 48.2461L28.556 48.2317L63.252 46.4113L75.9339 108.289L76.0622 108.915L76.6388 108.64L122.107 86.9721L142.299 112.012L142.805 112.64L143.142 111.907L150.48 95.935L161.445 108.664L169.093 119.675L169.507 120.272L169.916 119.672L192.052 87.2463L203.766 101.272L203.831 101.35L203.92 101.396L217.778 108.536L223.462 127.486L223.531 127.714L223.75 127.805L240.125 134.577L245.815 156.041L246.792 155.993L259.521 77.3425L267.604 73.0242L267.811 72.9137L267.859 72.684L272.641 49.4466L279.043 65.1809L279.089 65.2944L279.183 65.3737L288.069 72.9178L299.52 90.3534L299.591 90.4623L299.707 90.5225L313.641 97.7728L323.15 112.923L323.306 113.173L323.6 113.157L338.287 112.357L338.463 112.348L338.595 112.229Z" stroke="#95E362" stroke-opacity="0.07"/>
</svg>
