<svg width="106" height="112" viewBox="0 0 106 112" fill="none" xmlns="http://www.w3.org/2000/svg">
<path fill-rule="evenodd" clip-rule="evenodd" d="M93.9205 21.2074C84.6437 11.4272 71.3075 5.61099 56.7897 6.35569C30.4353 7.70754 10.1668 30.1678 11.5187 56.5222C12.1305 68.4498 17.0661 79.1309 24.7296 87.1252C14.7608 78.8353 8.15346 66.5645 7.43691 52.5954C6.07594 26.0633 26.4812 3.45146 53.0133 2.09049C69.5867 1.24035 84.6305 8.8833 93.9205 21.2074Z" fill="url(#paint0_linear_82_1442)"/>
<path fill-rule="evenodd" clip-rule="evenodd" d="M94.1702 91.2454C85.5385 98.4985 74.5765 103.127 62.4547 103.82C32.5988 105.525 7.01322 82.7051 5.3077 52.8492C4.82219 44.3502 6.32416 36.1972 9.41013 28.8427C4.12282 37.6327 1.33306 48.051 1.96222 59.0646C3.62713 88.2096 28.6035 110.487 57.7485 108.822C72.3153 107.99 85.1665 101.334 94.1702 91.2454Z" fill="url(#paint1_linear_82_1442)"/>
<g clip-path="url(#clip0_82_1442)">
<path d="M34.8128 84.4084C34.8128 84.7943 34.5933 85.1003 34.3272 85.1003H28.0735C27.8008 85.1003 27.5879 84.7876 27.5879 84.4084V55.0962C27.5879 54.7103 27.8074 54.4043 28.0735 54.4043H34.3205C34.5866 54.4043 34.8062 54.717 34.8062 55.0962V84.4084H34.8128Z" fill="#95E362"/>
<g opacity="0.3">
<path d="M48.0366 84.4084C48.0366 84.7943 47.8171 85.1003 47.551 85.1003H41.304C41.0312 85.1003 40.8184 84.7876 40.8184 84.4084V43.8197C40.8184 43.4338 41.0379 43.1278 41.304 43.1278H47.551C47.8171 43.1278 48.0366 43.4405 48.0366 43.8197V84.4084Z" fill="#95E362"/>
</g>
<path d="M61.2613 84.4085C61.2613 84.7943 61.0417 85.1003 60.7756 85.1003H54.5286C54.2559 85.1003 54.043 84.7877 54.043 84.4085V46.8002C54.043 46.4143 54.2625 46.1083 54.5286 46.1083H60.7756C61.0417 46.1083 61.2613 46.421 61.2613 46.8002V84.4085Z" fill="#95E362"/>
<g opacity="0.3">
<path d="M74.4859 84.4084C74.4859 84.7943 74.2663 85.1003 74.0002 85.1003H67.7532C67.4805 85.1003 67.2676 84.7876 67.2676 84.4084V39.655C67.2676 39.2758 67.4871 38.9631 67.7532 38.9631H74.0002C74.2663 38.9631 74.4859 39.2758 74.4859 39.655V84.4084Z" fill="#95E362"/>
</g>
<path d="M87.7105 84.4085C87.7105 84.7943 87.4909 85.1003 87.2248 85.1003H80.9778C80.7051 85.1003 80.4922 84.7877 80.4922 84.4085V32.8093C80.4922 32.4235 80.7117 32.1174 80.9778 32.1174H87.2248C87.4909 32.1174 87.7105 32.4301 87.7105 32.8093V84.4085Z" fill="#95E362"/>
<path d="M27.1883 49.8123C27.0427 49.8123 26.897 49.7447 26.8034 49.6147C26.6578 49.4014 26.7098 49.1153 26.9178 48.9645L43.6765 37.3291C43.7805 37.2563 43.9106 37.2251 44.0406 37.2563L56.9191 40.0182L88.8968 24.9552C89.1309 24.846 89.4065 24.9448 89.5158 25.1788C89.625 25.4129 89.5262 25.6886 89.2921 25.7978L57.1739 40.9233C57.0803 40.9649 56.9763 40.9805 56.8775 40.9597L44.0406 38.2082L27.4536 49.7291C27.3703 49.7863 27.2767 49.8123 27.1883 49.8123Z" fill="url(#paint2_linear_82_1442)"/>
<path d="M87.6387 24.3311L89.1158 27.275L91.2848 24.019L87.6387 24.3311Z" fill="#95E362"/>
</g>
<defs>
<linearGradient id="paint0_linear_82_1442" x1="50.9103" y1="2.19837" x2="54.8797" y2="79.5814" gradientUnits="userSpaceOnUse">
<stop stop-color="#95E362"/>
<stop offset="1" stop-color="#D1F560"/>
</linearGradient>
<linearGradient id="paint1_linear_82_1442" x1="46.7329" y1="28.4085" x2="51.3474" y2="109.187" gradientUnits="userSpaceOnUse">
<stop stop-color="#D1F560"/>
<stop offset="1" stop-color="#95E362"/>
</linearGradient>
<linearGradient id="paint2_linear_82_1442" x1="89.299" y1="25.7641" x2="13.4273" y2="51.8304" gradientUnits="userSpaceOnUse">
<stop offset="0.00320871" stop-color="#95E362"/>
<stop offset="0.993" stop-color="#95E362"/>
</linearGradient>
<clipPath id="clip0_82_1442">
<rect width="84.5474" height="67.3015" fill="white" transform="translate(21.1875 18.5261)"/>
</clipPath>
</defs>
</svg>
