<svg width="18" height="18" viewBox="0 0 18 18" fill="none" xmlns="http://www.w3.org/2000/svg">
<path d="M16.1031 2.90086C16.1027 2.5692 15.9708 2.25124 15.7363 2.01672C15.5018 1.7822 15.1838 1.65028 14.8521 1.6499H2.69996C2.37338 1.64996 2.05977 1.77773 1.82613 2.00591C1.5925 2.23408 1.45735 2.54458 1.44957 2.87107C1.4418 3.19755 1.562 3.51413 1.78451 3.75318C2.00702 3.99223 2.31418 4.13478 2.64039 4.15039V12.6107H2.34254C2.23195 12.6107 2.12589 12.6546 2.04769 12.7328C1.96949 12.811 1.92555 12.9171 1.92555 13.0277C1.92555 13.1383 1.96949 13.2443 2.04769 13.3225C2.12589 13.4007 2.23195 13.4447 2.34254 13.4447H8.35906V14.3501C8.08084 14.4485 7.84635 14.642 7.69704 14.8966C7.54772 15.1511 7.4932 15.4502 7.5431 15.7411C7.593 16.0319 7.74412 16.2958 7.96973 16.486C8.19535 16.6762 8.48095 16.7805 8.77604 16.7805C9.07114 16.7805 9.35674 16.6762 9.58235 16.486C9.80797 16.2958 9.95909 16.0319 10.009 15.7411C10.0589 15.4502 10.0044 15.1511 9.85505 14.8966C9.70574 14.642 9.47125 14.4485 9.19303 14.3501V13.4447H15.2095C15.3201 13.4447 15.4262 13.4007 15.5044 13.3225C15.5826 13.2443 15.6265 13.1383 15.6265 13.0277C15.6265 12.9171 15.5826 12.811 15.5044 12.7328C15.4262 12.6546 15.3201 12.6107 15.2095 12.6107H14.9117V4.15039C15.2327 4.13468 15.5353 3.99623 15.757 3.76366C15.9788 3.53109 16.1027 3.2222 16.1031 2.90086ZM8.77604 15.9466C8.69357 15.9466 8.61295 15.9221 8.54438 15.8763C8.47581 15.8305 8.42236 15.7654 8.3908 15.6892C8.35924 15.613 8.35098 15.5291 8.36707 15.4482C8.38316 15.3674 8.42287 15.2931 8.48119 15.2347C8.53951 15.1764 8.61381 15.1367 8.69469 15.1206C8.77558 15.1045 8.85942 15.1128 8.93562 15.1443C9.01181 15.1759 9.07694 15.2294 9.12276 15.2979C9.16857 15.3665 9.19303 15.4471 9.19303 15.5296C9.1929 15.6401 9.14893 15.7461 9.07076 15.8243C8.99259 15.9025 8.8866 15.9465 8.77604 15.9466ZM2.28297 2.90086C2.2831 2.79031 2.32707 2.68432 2.40524 2.60615C2.48342 2.52797 2.5894 2.484 2.69996 2.48388H14.8521C14.9627 2.48388 15.0688 2.52781 15.147 2.60601C15.2252 2.68421 15.2691 2.79027 15.2691 2.90086C15.2691 3.01145 15.2252 3.11752 15.147 3.19572C15.0688 3.27392 14.9627 3.31785 14.8521 3.31785H2.69996C2.5894 3.31772 2.48342 3.27375 2.40524 3.19558C2.32707 3.1174 2.2831 3.01141 2.28297 2.90086ZM3.47436 12.6107V4.15182H14.0777V12.6107H3.47436Z" fill="#565656"/>
<path d="M4.72558 5.81981H9.01458C9.12517 5.81981 9.23124 5.77588 9.30944 5.69768C9.38764 5.61948 9.43157 5.51342 9.43157 5.40283C9.43157 5.29223 9.38764 5.18617 9.30944 5.10797C9.23124 5.02977 9.12517 4.98584 9.01458 4.98584H4.72558C4.61499 4.98584 4.50893 5.02977 4.43073 5.10797C4.35253 5.18617 4.30859 5.29223 4.30859 5.40283C4.30859 5.51342 4.35253 5.61948 4.43073 5.69768C4.50893 5.77588 4.61499 5.81981 4.72558 5.81981ZM4.72558 7.48776H9.01458C9.12517 7.48776 9.23124 7.44383 9.30944 7.36563C9.38764 7.28743 9.43157 7.18136 9.43157 7.07077C9.43157 6.96018 9.38764 6.85412 9.30944 6.77592C9.23124 6.69772 9.12517 6.65379 9.01458 6.65379H4.72558C4.61499 6.65379 4.50893 6.69772 4.43073 6.77592C4.35253 6.85412 4.30859 6.96018 4.30859 7.07077C4.30859 7.18136 4.35253 7.28743 4.43073 7.36563C4.50893 7.44383 4.61499 7.48776 4.72558 7.48776ZM7.52535 8.73872C7.52528 8.62814 7.48133 8.52212 7.40314 8.44393C7.32496 8.36575 7.21893 8.32179 7.10836 8.32173H4.72558C4.61499 8.32173 4.50893 8.36566 4.43073 8.44386C4.35253 8.52206 4.30859 8.62813 4.30859 8.73872C4.30859 8.84931 4.35253 8.95537 4.43073 9.03357C4.50893 9.11177 4.61499 9.1557 4.72558 9.1557H7.10836C7.21893 9.15564 7.32496 9.11169 7.40314 9.0335C7.48133 8.95531 7.52528 8.84929 7.52535 8.73872ZM12.827 8.08345H11.3974C11.2868 8.08345 11.1807 8.12739 11.1025 8.20559C11.0243 8.28379 10.9804 8.38985 10.9804 8.50044C10.9804 8.61103 11.0243 8.71709 11.1025 8.79529C11.1807 8.87349 11.2868 8.91743 11.3974 8.91743H11.8203L9.99581 10.7422L9.09655 9.66324C9.06119 9.62079 9.01776 9.5858 8.96876 9.56028C8.91976 9.53477 8.86619 9.51925 8.81114 9.51461C8.7561 9.50998 8.70068 9.51633 8.64811 9.53329C8.59554 9.55026 8.54686 9.5775 8.50491 9.61344L6.83696 11.0431C6.75297 11.1151 6.70102 11.2175 6.69253 11.3278C6.68404 11.438 6.71971 11.5472 6.79169 11.6312C6.86367 11.7152 6.96606 11.7671 7.07635 11.7756C7.18663 11.7841 7.29577 11.7484 7.37976 11.6764L8.72674 10.5218L9.64745 11.6266C9.6845 11.6712 9.73044 11.7075 9.78233 11.7333C9.83422 11.7591 9.89091 11.7737 9.94879 11.7764C10.0067 11.779 10.0645 11.7695 10.1185 11.7485C10.1725 11.7275 10.2215 11.6955 10.2624 11.6545L12.41 9.50716V9.93011C12.41 10.0407 12.454 10.1468 12.5322 10.225C12.6104 10.3032 12.7164 10.3471 12.827 10.3471C12.9376 10.3471 13.0437 10.3032 13.1219 10.225C13.2001 10.1468 13.244 10.0407 13.244 9.93011V8.50044C13.244 8.38987 13.2 8.28384 13.1218 8.20565C13.0436 8.12747 12.9376 8.08352 12.827 8.08345Z" fill="#565656"/>
</svg>
