<svg width="18" height="18" viewBox="0 0 18 18" fill="none" xmlns="http://www.w3.org/2000/svg">
<path d="M15.2643 1.6499H2.28289C2.06179 1.6499 1.84974 1.73774 1.6934 1.89408C1.53705 2.05042 1.44922 2.26247 1.44922 2.48357C1.44922 2.70468 1.53705 2.91672 1.6934 3.07307C1.84974 3.22941 2.06179 3.31724 2.28289 3.31724H15.2643C15.4854 3.31724 15.6975 3.22941 15.8538 3.07307C16.0102 2.91672 16.098 2.70468 16.098 2.48357C16.098 2.26247 16.0102 2.05042 15.8538 1.89408C15.6975 1.73774 15.4854 1.6499 15.2643 1.6499ZM15.2048 12.6067H14.907V4.15091H2.64018V12.6067H2.34244C2.23189 12.6067 2.12586 12.6506 2.04769 12.7288C1.96952 12.807 1.9256 12.913 1.9256 13.0236C1.9256 13.1341 1.96952 13.2401 2.04769 13.3183C2.12586 13.3965 2.23189 13.4404 2.34244 13.4404H8.35678V14.351C8.07866 14.4493 7.84425 14.6428 7.695 14.8973C7.54574 15.1517 7.49123 15.4507 7.54111 15.7414C7.591 16.0322 7.74206 16.2959 7.96759 16.4861C8.19313 16.6762 8.47862 16.7805 8.77361 16.7805C9.0686 16.7805 9.35409 16.6762 9.57963 16.4861C9.80517 16.2959 9.95623 16.0322 10.0061 15.7414C10.056 15.4507 10.0015 15.1517 9.85223 14.8973C9.70297 14.6428 9.46856 14.4493 9.19045 14.351V13.4404H15.2048C15.3153 13.4404 15.4214 13.3965 15.4995 13.3183C15.5777 13.2401 15.6216 13.1341 15.6216 13.0236C15.6216 12.913 15.5777 12.807 15.4995 12.7288C15.4214 12.6506 15.3153 12.6067 15.2048 12.6067ZM8.77361 15.9414C8.69117 15.9414 8.61058 15.917 8.54203 15.8712C8.47348 15.8253 8.42006 15.7602 8.38851 15.6841C8.35696 15.6079 8.3487 15.5241 8.36479 15.4432C8.38087 15.3624 8.42057 15.2881 8.47886 15.2298C8.53716 15.1715 8.61143 15.1318 8.69229 15.1157C8.77315 15.0997 8.85696 15.1079 8.93313 15.1395C9.00929 15.171 9.07439 15.2244 9.1202 15.293C9.166 15.3615 9.19045 15.4421 9.19045 15.5246C9.19032 15.6351 9.14636 15.741 9.06822 15.8192C8.99007 15.8973 8.88412 15.9413 8.77361 15.9414ZM4.72435 4.98459H9.0118C9.12235 4.98459 9.22838 5.0285 9.30655 5.10667C9.38472 5.18485 9.42864 5.29087 9.42864 5.40142C9.42864 5.51197 9.38472 5.618 9.30655 5.69617C9.22838 5.77434 9.12235 5.81826 9.0118 5.81826H4.72435C4.6138 5.81826 4.50778 5.77434 4.42961 5.69617C4.35143 5.618 4.30752 5.51197 4.30752 5.40142C4.30752 5.29087 4.35143 5.18485 4.42961 5.10667C4.50778 5.0285 4.6138 4.98459 4.72435 4.98459ZM4.72435 6.65193H9.0118C9.12235 6.65193 9.22838 6.69584 9.30655 6.77402C9.38472 6.85219 9.42864 6.95821 9.42864 7.06876C9.42864 7.17931 9.38472 7.28534 9.30655 7.36351C9.22838 7.44168 9.12235 7.4856 9.0118 7.4856H4.72435C4.6138 7.4856 4.50778 7.44168 4.42961 7.36351C4.35143 7.28534 4.30752 7.17931 4.30752 7.06876C4.30752 6.95821 4.35143 6.85219 4.42961 6.77402C4.50778 6.69584 4.6138 6.65193 4.72435 6.65193ZM4.30752 8.7361C4.30758 8.62557 4.35152 8.51958 4.42968 8.44143C4.50783 8.36327 4.61382 8.31933 4.72435 8.31927H7.10627C7.21682 8.31927 7.32285 8.36318 7.40102 8.44136C7.47919 8.51953 7.52311 8.62555 7.52311 8.7361C7.52311 8.84666 7.47919 8.95268 7.40102 9.03085C7.32285 9.10902 7.21682 9.15294 7.10627 9.15294H4.72435C4.61382 9.15288 4.50783 9.10894 4.42968 9.03078C4.35152 8.95262 4.30758 8.84664 4.30752 8.7361ZM13.2397 9.92706C13.2397 10.0376 13.1958 10.1436 13.1176 10.2218C13.0394 10.3 12.9334 10.3439 12.8229 10.3439C12.7123 10.3439 12.6063 10.3 12.5281 10.2218C12.45 10.1436 12.406 10.0376 12.406 9.92706V9.50427L10.2592 11.6509C10.2183 11.6918 10.1693 11.7239 10.1153 11.7448C10.0613 11.7658 10.0035 11.7753 9.94567 11.7727C9.88782 11.77 9.83114 11.7554 9.77927 11.7296C9.7274 11.7038 9.68148 11.6675 9.64444 11.623L8.72407 10.5185L7.37757 11.6728C7.29361 11.7447 7.18451 11.7804 7.07427 11.7719C6.96402 11.7634 6.86167 11.7115 6.78971 11.6275C6.71776 11.5436 6.68211 11.4345 6.69059 11.3242C6.69908 11.214 6.75101 11.1116 6.83497 11.0397L8.50231 9.61051C8.54425 9.57458 8.59291 9.54735 8.64546 9.53039C8.69801 9.51343 8.75341 9.50709 8.80844 9.51172C8.86346 9.51635 8.91702 9.53187 8.966 9.55737C9.01498 9.58288 9.0584 9.61786 9.09374 9.66029L9.99268 10.7388L11.8165 8.91475H11.3937C11.2832 8.91475 11.1771 8.87083 11.099 8.79266C11.0208 8.71449 10.9769 8.60846 10.9769 8.49791C10.9769 8.38736 11.0208 8.28134 11.099 8.20317C11.1771 8.12499 11.2832 8.08108 11.3937 8.08108H12.8229C12.9334 8.08114 13.0394 8.12508 13.1175 8.20323C13.1957 8.28139 13.2396 8.38738 13.2397 8.49791V9.92706Z" fill="url(#paint0_linear_82_2708)"/>
<defs>
<linearGradient id="paint0_linear_82_2708" x1="8.77361" y1="1.6499" x2="8.77361" y2="16.7805" gradientUnits="userSpaceOnUse">
<stop stop-color="#95E362"/>
<stop offset="1" stop-color="#D1F560"/>
</linearGradient>
</defs>
</svg>
