<svg width="18" height="18" viewBox="0 0 18 18" fill="none" xmlns="http://www.w3.org/2000/svg">
<path d="M11.4935 10.2362L9.54148 8.77219V5.79003C9.54148 5.49018 9.29911 5.2478 8.99926 5.2478C8.69941 5.2478 8.45703 5.49018 8.45703 5.79003V9.04333C8.45703 9.21412 8.53728 9.37518 8.67392 9.47711L10.8428 11.1038C10.9364 11.1743 11.0504 11.2123 11.1676 11.2122C11.3329 11.2122 11.4956 11.1379 11.6019 10.9948C11.7819 10.7556 11.7331 10.4157 11.4935 10.2362Z" fill="#ABABAB"/>
<path d="M9 2C5.13996 2 2 5.13996 2 9C2 12.86 5.13996 16 9 16C12.86 16 16 12.86 16 9C16 5.13996 12.86 2 9 2ZM9 14.9156C5.73857 14.9156 3.08443 12.2614 3.08443 9C3.08443 5.73857 5.73857 3.08443 9 3.08443C12.262 3.08443 14.9156 5.73857 14.9156 9C14.9156 12.2614 12.2614 14.9156 9 14.9156Z" fill="#ABABAB"/>
</svg>
