<svg width="16" height="16" viewBox="0 0 16 16" fill="none" xmlns="http://www.w3.org/2000/svg">
<path d="M12.4364 8.71063H3.90858C3.76828 8.71133 3.63133 8.75354 3.51498 8.83195C3.39863 8.91036 3.3081 9.02146 3.25478 9.15123C3.20036 9.28065 3.18549 9.42329 3.21205 9.56115C3.23861 9.69901 3.30541 9.82591 3.40402 9.92585L7.66794 14.1898C7.734 14.2564 7.8126 14.3092 7.8992 14.3453C7.9858 14.3814 8.07869 14.4 8.1725 14.4C8.26632 14.4 8.3592 14.3814 8.4458 14.3453C8.5324 14.3092 8.611 14.2564 8.67707 14.1898L12.941 9.92585C13.0396 9.82591 13.1064 9.69901 13.133 9.56115C13.1595 9.42329 13.1446 9.28065 13.0902 9.15123C13.0369 9.02146 12.9464 8.91036 12.83 8.83195C12.7137 8.75354 12.5767 8.71133 12.4364 8.71063ZM3.90858 7.28932H12.4364C12.5767 7.28862 12.7137 7.24641 12.83 7.168C12.9464 7.08959 13.0369 6.9785 13.0902 6.84872C13.1446 6.7193 13.1595 6.57666 13.133 6.4388C13.1064 6.30094 13.0396 6.17404 12.941 6.07411L8.67707 1.81019C8.611 1.74358 8.5324 1.69071 8.4458 1.65463C8.3592 1.61855 8.26632 1.59998 8.1725 1.59998C8.07869 1.59998 7.9858 1.61855 7.8992 1.65463C7.8126 1.69071 7.734 1.74358 7.66794 1.81019L3.40402 6.07411C3.30541 6.17404 3.23861 6.30094 3.21205 6.4388C3.18549 6.57666 3.20036 6.7193 3.25478 6.84872C3.3081 6.9785 3.39863 7.08959 3.51498 7.168C3.63133 7.24641 3.76828 7.28862 3.90858 7.28932Z" fill="white"/>
</svg>
