<svg width="180" height="180" viewBox="0 0 180 180" fill="none" xmlns="http://www.w3.org/2000/svg">
<path fill-rule="evenodd" clip-rule="evenodd" d="M118.832 89.1479L89 118.977C89 118.977 99.6088 115.664 114.855 120.966C117.42 121.857 121.712 117.565 120.821 115C115.519 99.7539 118.832 89.1479 118.832 89.1479Z" fill="#212121"/>
<path fill-rule="evenodd" clip-rule="evenodd" d="M38.9944 39.1384C57.1069 21.0287 86.5116 21.0287 104.624 39.1384C122.734 57.2509 122.734 86.6556 104.624 104.768C86.5116 122.878 57.1069 122.878 38.9944 104.768C20.8847 86.6556 20.8847 57.2509 38.9944 39.1384Z" fill="#080808"/>
<path fill-rule="evenodd" clip-rule="evenodd" d="M98.6252 34.0703C100.763 35.5893 102.77 37.2846 104.624 39.1384C122.734 57.2509 122.734 86.6556 104.624 104.768C86.5118 122.878 57.1071 122.878 38.9946 104.768C37.9287 103.699 36.9246 102.594 35.9824 101.455C53.538 107.159 73.6024 103.041 87.5412 89.1025C102.408 74.2356 106.104 52.3994 98.6252 34.0703Z" fill="#070707"/>
<path fill-rule="evenodd" clip-rule="evenodd" d="M35.0168 35.1623C55.323 14.8561 88.294 14.8561 108.6 35.1623C128.906 55.4686 128.906 88.4395 108.6 108.746C88.294 129.052 55.323 129.052 35.0168 108.746C14.7105 88.4395 14.7105 55.4686 35.0168 35.1623ZM40.9821 41.1276C57.9949 24.1148 85.6221 24.1148 102.635 41.1276C119.648 58.1404 119.648 85.7676 102.635 102.78C85.6221 119.793 57.9949 119.793 40.9821 102.78C23.9693 85.7676 23.9693 58.1404 40.9821 41.1276Z" fill="#111111"/>
<path fill-rule="evenodd" clip-rule="evenodd" d="M25.1929 95.0906C15.5404 75.6309 18.8141 51.3647 35.0169 35.1619C50.2326 19.9462 72.5582 16.1325 91.3429 23.7206C91.5849 26.8125 91.6122 29.9175 91.4244 33.0131C75.081 24.7837 54.6229 27.4894 40.9822 41.1272C26.5232 55.5862 24.3519 77.7122 34.4741 94.4747C31.5097 94.8797 28.4835 95.0906 25.4122 95.0906H25.1929Z" fill="#141414"/>
<path fill-rule="evenodd" clip-rule="evenodd" d="M112.578 130.621C110.205 128.248 108.871 125.029 108.871 121.672C108.871 118.315 110.205 115.096 112.578 112.723C114.952 110.349 118.171 109.016 121.527 109.016C124.884 109.016 128.103 110.349 130.477 112.723L171.247 153.493C172.344 154.589 169.225 159.492 164.286 164.43C159.347 169.369 154.445 172.488 153.348 171.391L112.578 130.621Z" fill="#212121"/>
<path fill-rule="evenodd" clip-rule="evenodd" d="M112.578 130.621C110.205 128.248 108.871 125.029 108.871 121.672C108.871 118.315 110.205 115.096 112.578 112.723C114.952 110.349 118.171 109.016 121.527 109.016C124.884 109.016 128.103 110.349 130.477 112.723L167.377 149.623C168.474 150.719 165.355 155.622 160.416 160.56C155.477 165.499 150.575 168.618 149.478 167.521L112.578 130.621Z" fill="#0D0D0D"/>
<path fill-rule="evenodd" clip-rule="evenodd" d="M65.8523 63.0987C65.7876 60.4184 66.7944 58.4609 68.3469 57.3134C70.7882 55.5134 74.436 55.5894 76.416 57.8197C77.2654 58.7787 77.7576 60.1344 77.7716 61.85C77.8054 65.9647 75.876 68.3694 73.986 70.8584C71.4435 74.2137 68.9038 77.6619 68.5888 83.419C68.5482 84.1642 68.8052 84.895 69.3034 85.4507C69.8015 86.0064 70.5001 86.3414 71.2452 86.382C71.9904 86.4227 72.7212 86.1656 73.2769 85.6675C73.8325 85.1693 74.1676 84.4708 74.2082 83.7256C74.4445 79.3522 76.537 76.804 78.4691 74.2559C81.0566 70.8444 83.4444 67.4412 83.3966 61.805C83.3685 58.4919 82.2632 55.9353 80.6207 54.0847C76.7845 49.7647 69.7391 49.2978 65.0085 52.7853C62.1735 54.8778 60.112 58.3428 60.2273 63.2309C60.2448 63.9768 60.5579 64.6852 61.0978 65.2003C61.6376 65.7154 62.3599 65.9949 63.1059 65.9773C63.8518 65.9598 64.5602 65.6467 65.0752 65.1068C65.5903 64.567 65.8698 63.8447 65.8523 63.0987Z" fill="#95E362" fill-opacity="0.05"/>
<path d="M71.1371 96.826C73.0477 96.826 74.5965 95.2772 74.5965 93.3666C74.5965 91.456 73.0477 89.9072 71.1371 89.9072C69.2265 89.9072 67.6777 91.456 67.6777 93.3666C67.6777 95.2772 69.2265 96.826 71.1371 96.826Z" fill="#95E362" fill-opacity="0.05"/>
<path fill-rule="evenodd" clip-rule="evenodd" d="M121.748 23.8977L130.185 9.83524C130.375 9.51853 130.501 9.16749 130.555 8.80216C130.61 8.43684 130.592 8.06439 130.502 7.70607C130.412 7.34775 130.253 7.01059 130.033 6.71382C129.813 6.41706 129.537 6.16651 129.22 5.97649C128.904 5.78646 128.553 5.66068 128.187 5.60631C127.822 5.55195 127.45 5.57008 127.091 5.65966C126.733 5.74924 126.396 5.90852 126.099 6.1284C125.802 6.34828 125.552 6.62446 125.362 6.94118L116.924 21.0037C116.54 21.6433 116.427 22.4092 116.607 23.1328C116.788 23.8565 117.249 24.4786 117.889 24.8624C118.529 25.2462 119.294 25.3602 120.018 25.1793C120.742 24.9983 121.364 24.5374 121.748 23.8977ZM135.054 33.1649L165.991 10.6649C166.595 10.2263 166.999 9.56597 167.116 8.82912C167.232 8.09228 167.051 7.33931 166.613 6.73586C166.396 6.43706 166.122 6.18397 165.807 5.99102C165.492 5.79808 165.142 5.66906 164.777 5.61135C164.04 5.49478 163.287 5.6757 162.684 6.1143L131.746 28.6143C131.143 29.0529 130.738 29.7133 130.622 30.4501C130.505 31.1869 130.686 31.9399 131.125 32.5434C131.563 33.1468 132.224 33.5513 132.96 33.6679C133.697 33.7844 134.45 33.6035 135.054 33.1649ZM139.705 50.4927L162.205 44.8677C162.569 44.7834 162.913 44.6275 163.215 44.409C163.518 44.1906 163.775 43.9141 163.969 43.5956C164.164 43.277 164.294 42.9229 164.35 42.5538C164.407 42.1847 164.389 41.808 164.299 41.4458C164.208 41.0835 164.046 40.743 163.823 40.4439C163.599 40.1448 163.318 39.8933 162.997 39.7039C162.675 39.5146 162.318 39.3912 161.948 39.341C161.578 39.2908 161.202 39.3147 160.841 39.4115L138.341 45.0365C137.629 45.2276 137.02 45.6909 136.646 46.3266C136.272 46.9623 136.163 47.7195 136.342 48.4351C136.521 49.1506 136.973 49.7673 137.603 50.1521C138.232 50.537 138.987 50.6593 139.705 50.4927Z" fill="#95E362" fill-opacity="0.03"/>
</svg>
